<svg width="120" height="120" viewBox="0 0 120 120" fill="none" xmlns="http://www.w3.org/2000/svg">
<g id="agile-svgrepo-com 1">
<path id="Vector" d="M76.5856 100H102.5C103.881 100 105 101.119 105 102.5C105 103.881 103.881 105 102.5 105H17.5C16.1193 105 15 103.881 15 102.5C15 101.119 16.1193 100 17.5 100H59.9879L59.9964 100C66.5847 99.9905 72.9396 97.4157 77.6777 92.6777C87.4408 82.9146 87.4408 67.0854 77.6777 57.3223C75.7753 55.4199 73.6426 53.8882 71.3693 52.7272C71.2746 52.6868 71.1818 52.6403 71.0914 52.5875C62.7625 48.4646 52.6138 49.2688 44.9947 55H52.5C53.8807 55 55 56.1193 55 57.5C55 58.8807 53.8807 60 52.5 60H37.5C36.1193 60 35 58.8807 35 57.5V42.5C35 41.1193 36.1193 40 37.5 40C38.8807 40 40 41.1193 40 42.5V52.6382C47.3201 46.0797 57.0868 43.7447 66.149 45.6334C65.4205 43.7766 65 41.8283 65 40C65 31.7157 71.7157 25 80 25H81.4645L80.7322 24.2678C79.7559 23.2915 79.7559 21.7085 80.7322 20.7322C81.7085 19.7559 83.2915 19.7559 84.2678 20.7322L89.2678 25.7322C90.2441 26.7085 90.2441 28.2915 89.2678 29.2678L84.2678 34.2678C83.2915 35.2441 81.7085 35.2441 80.7322 34.2678C79.7559 33.2915 79.7559 31.7085 80.7322 30.7322L81.4645 30H80C74.4772 30 70 34.4772 70 40C70 42.8065 71.6506 46.3639 73.7585 48.3319C76.4432 49.7178 78.9625 51.5361 81.2132 53.7868C92.9289 65.5025 92.9289 84.4975 81.2132 96.2132C79.7845 97.6419 78.2331 98.9067 76.5856 100Z" fill="black"/>
</g>
</svg>
