<svg width="120" height="120" viewBox="0 0 120 120" fill="none" xmlns="http://www.w3.org/2000/svg">
<g clip-path="url(#clip0_428_757)">
<path d="M59.8516 33.0575C58.1172 33.8972 56.3987 35.0609 54.8048 36.6568C46.8147 44.6485 39.5514 51.9118 39.5514 51.9118L39.5545 51.9165C39.5111 51.96 39.4675 51.9957 39.4239 52.0407C37.3558 54.1104 37.2737 57.41 39.1837 59.5749C39.2594 59.6618 39.3402 59.7474 39.4239 59.8294C41.571 61.9796 45.0573 61.9847 47.2127 59.8294L55.6026 51.4395C57.0501 51.9699 58.4732 52.2793 59.8387 52.434C61.6989 52.6402 63.4462 52.5629 65.0001 52.3437C68.788 51.807 68.3915 51.9633 70.5885 51.2412C72.7806 50.5222 75.2437 49.0489 75.2437 49.0489L76.7348 50.5383C76.8991 50.6979 80.7001 54.5051 82.6391 56.4411C82.9825 56.7858 83.2741 57.0697 83.4693 57.2729C83.6934 57.5065 83.9432 57.6757 84.0979 57.9015L93.7724 67.5762C96.561 64.4473 99.7462 59.7875 99.3529 54.4376L75.179 30.267C75.179 30.267 66.8116 29.6691 59.8516 33.0575Z" fill="black"/>
<path d="M61.1986 92.4286C59.0578 90.2848 55.5827 90.2848 53.4405 92.4286L51.8482 94.0209C53.9854 91.8806 53.9838 88.4133 51.8432 86.2711C49.7011 84.1322 46.2307 84.1322 44.0885 86.2727C46.2307 84.1322 46.2307 80.6618 44.0885 78.518C41.9479 76.3739 38.4759 76.3774 36.3337 78.518C38.4759 76.3774 38.4759 72.9054 36.3337 70.7613C34.1929 68.621 30.7211 68.621 28.5787 70.7646L23.7834 75.5583C21.6412 77.7021 21.6412 81.1709 23.7834 83.3147C25.9239 85.4555 29.3946 85.4555 31.5365 83.3147C29.3943 85.4555 29.3943 88.9273 31.5365 91.0694C33.6804 93.21 37.1507 93.21 39.2929 91.0694C37.1507 93.21 37.1507 96.6806 39.2929 98.8244C41.4351 100.965 44.9055 100.965 47.0479 98.8244L48.6422 97.2286C46.5049 99.3724 46.5063 102.84 48.6468 104.982C50.789 107.122 54.2594 107.122 56.4018 104.982L61.1988 100.185C63.3391 98.0395 63.3391 94.5691 61.1986 92.4286Z" fill="black"/>
<path d="M119.06 41.7843L90.8305 13.5519C89.5764 12.3011 87.5488 12.3011 86.298 13.5519L77.2438 22.6058C75.9929 23.8567 75.9929 25.8845 77.2438 27.137L105.476 55.3677C106.725 56.6216 108.756 56.6216 110.006 55.3677L119.06 46.3119C120.314 45.0646 120.314 43.0368 119.06 41.7843ZM111.013 48.0449C109.665 49.3893 107.486 49.3893 106.143 48.0449C104.799 46.6989 104.799 44.5196 106.143 43.1753C107.486 41.8309 109.665 41.8309 111.013 43.1753C112.357 44.5196 112.356 46.6989 111.013 48.0449Z" fill="black"/>
<path d="M42.7539 23.4056L33.7014 14.3517C32.4508 13.1009 30.4213 13.1009 29.1705 14.3517L0.938145 42.5838C-0.312715 43.8314 -0.312715 45.8625 0.938145 47.1117L9.99229 56.1689C11.2415 57.4184 13.274 57.4184 14.5216 56.1689L42.7539 27.9366C44.0064 26.6857 44.0064 24.6579 42.7539 23.4056ZM13.8557 48.8445C12.5113 50.1872 10.3307 50.1872 8.98611 48.8445C7.64197 47.4987 7.64197 45.3192 8.98611 43.9748C10.3305 42.6307 12.5113 42.6307 13.8557 43.9748C15.2001 45.3192 15.2001 47.4984 13.8557 48.8445Z" fill="black"/>
<path d="M93.1709 73.3144L91.4206 71.5608L74.4263 54.5665L73.2818 55.0742L72.0359 55.524L71.9459 55.5514C71.7265 55.6208 69.6762 56.2477 65.6337 56.8198C63.4962 57.1182 61.3784 57.1552 59.3281 56.9215C58.5174 56.8313 57.7113 56.6989 56.9149 56.525L50.4094 63.0275C46.5005 66.9364 40.1353 66.9364 36.2264 63.0275C36.0893 62.889 35.9571 62.7486 35.8348 62.61L35.7928 62.5632C33.3251 59.765 32.6981 55.935 33.8588 52.6114L36.3603 48.7186L36.3556 48.714L51.6089 33.4622C52.2293 32.8432 52.8806 32.2662 53.5575 31.7213C48.8042 30.788 44.8163 31.0636 44.8163 31.0636L20.647 55.2371C20.3215 59.6874 23.3778 64.565 25.552 67.4133C29.4642 63.672 35.6862 63.7205 39.5304 67.5666C40.9617 68.9963 41.8629 70.7581 42.2431 72.6052C44.0935 72.9889 45.8538 73.8884 47.2852 75.3197C48.7165 76.7527 49.6177 78.5145 49.9981 80.3633C51.8468 80.7436 53.6103 81.6429 55.0402 83.0745C55.996 84.0303 56.7164 85.133 57.2016 86.3129C59.8031 86.2808 62.4146 87.2541 64.3941 89.232C68.2964 93.1311 68.2948 99.4819 64.3941 103.38L62.7982 104.978L63.5977 105.778C65.7417 107.922 69.2119 107.922 71.3543 105.778C73.4965 103.637 73.4965 100.166 71.3543 98.0232L72.9499 99.6239C75.0938 101.764 78.5625 101.764 80.7047 99.6239C82.8469 97.4801 82.8485 94.0097 80.7047 91.8659C82.8485 94.0097 86.3173 94.0097 88.4595 91.8659C90.6003 89.727 90.6049 86.255 88.4595 84.1109C90.6049 86.255 94.0737 86.255 96.2145 84.1109C98.3583 81.9706 98.3583 78.4983 96.2145 76.3578L93.1709 73.3144Z" fill="black"/>
</g>
<defs>
<clipPath id="clip0_428_757">
<rect width="120" height="120" fill="white"/>
</clipPath>
</defs>
</svg>
