<svg width="1440" height="962" viewBox="0 0 1440 962" fill="none" xmlns="http://www.w3.org/2000/svg">
<g clip-path="url(#clip0_81_1356)">
<rect width="1440" height="962" fill="white"/>
<mask id="mask0_81_1356" style="mask-type:luminance" maskUnits="userSpaceOnUse" x="0" y="0" width="1440" height="962">
<path d="M1440 0H0V962H1440V0Z" fill="white"/>
</mask>
<g mask="url(#mask0_81_1356)">
<path d="M1440 0H0V962H1440V0Z" fill="#2C2C2B"/>
</g>
<mask id="mask1_81_1356" style="mask-type:luminance" maskUnits="userSpaceOnUse" x="0" y="0" width="1440" height="962">
<path d="M1440 0H0V962H1440V0Z" fill="white"/>
</mask>
<g mask="url(#mask1_81_1356)">
<path d="M-259.2 1237.25C-250.92 1063.01 -153.96 898.869 -6.24023 806.637C68.6398 759.86 155.4 732.563 243.36 726.55C343.44 719.696 424.44 754.689 520.32 772.486C594.96 786.315 672.48 789.682 746.16 768.758C822.36 747.233 891 700.095 938.64 636.724C1018.08 531.024 1005 397.546 1056.72 280.182C1103.52 174.122 1202.4 92.5924 1315.32 67.0994C1428.24 41.6064 1552.44 72.6309 1640.16 148.388" stroke="#134AA0" stroke-miterlimit="10"/>
<path d="M-272.04 1237.49C-264.36 1064.93 -169.08 901.875 -23.4 809.764C51.84 761.784 139.44 733.886 228.36 727.994C254.76 726.19 279.96 727.392 304.44 730.278C373.32 738.696 436.68 761.784 507.96 775.613C522 778.378 536.16 780.663 550.32 782.587C612.36 790.884 675.6 790.283 736.08 772.967C769.32 763.467 801 749.037 830.16 730.158C868.2 705.627 901.56 673.881 928.68 637.445C932.64 632.154 936.36 626.743 939.96 621.332C999 530.904 1006.2 428.571 1041.84 335.858C1047.36 321.549 1053.48 307.359 1060.56 293.53C1089.72 236.893 1135.08 188.672 1190.04 153.559C1230.6 127.585 1276.68 108.826 1325.16 98.9658C1358.16 92.352 1392.24 89.947 1425.96 91.2698C1508.88 94.757 1590.24 120.491 1649.4 166.907" stroke="#134AA0" stroke-miterlimit="10"/>
<path d="M-284.76 1237.73C-277.56 1066.86 -183.72 905.483 -40.4398 812.89C35.2802 764.069 123.6 735.209 213.48 729.316C240.12 727.633 265.56 728.715 290.4 731.842C360 740.5 424.08 764.189 495.72 778.619C509.88 781.505 524.16 784.03 538.44 786.074C601.08 794.973 665.16 794.732 726 777.056C759.48 767.436 791.4 752.525 820.56 732.924C858.6 707.551 891.48 674.963 918.72 638.047C922.68 632.635 926.52 627.224 930.12 621.693C990.12 530.062 1003.92 432.058 1043.88 345.719C1050.12 332.371 1056.84 319.264 1064.52 306.517C1095.96 254.329 1142.52 210.678 1198.32 179.173C1239.6 155.844 1286.16 139.129 1335.12 130.471C1368.48 124.579 1402.92 122.415 1437 123.377C1520.76 125.902 1602.84 146.104 1658.88 185.185" stroke="#134AA0" stroke-miterlimit="10"/>
<path d="M-297.601 1237.97C-291.001 1068.78 -198.721 908.729 -57.6006 816.017C18.4794 766.113 107.759 736.531 198.599 730.639C225.479 728.956 251.279 730.158 276.359 733.285C346.679 742.183 411.479 766.474 483.599 781.625C497.879 784.631 512.279 787.277 526.679 789.441C590.039 799.061 654.84 799.061 716.16 781.144C749.88 771.284 781.919 756.132 811.319 735.81C849.359 709.716 881.879 676.166 909.119 638.648C913.079 633.237 916.919 627.705 920.519 622.174C981.479 529.341 1001.64 435.546 1046.16 355.82C1053 343.554 1060.32 331.529 1068.6 319.745C1102.32 271.885 1150.08 232.924 1206.84 205.026C1248.72 184.343 1295.76 169.793 1345.2 162.217C1378.92 157.047 1413.6 155.123 1448.16 155.724C1532.76 157.287 1615.44 172.078 1668.48 203.704" stroke="#134AA0" stroke-miterlimit="10"/>
<path d="M-310.44 1238.09C-304.44 1070.59 -213.72 911.856 -74.7604 819.023C1.67959 768.037 91.7996 737.613 183.6 731.962C210.72 730.278 236.76 731.481 262.08 734.727C333.12 743.866 398.64 768.758 471.12 784.511C485.52 787.637 500.04 790.523 514.68 792.808C578.64 803.029 644.16 803.39 706.08 785.112C740.04 775.131 772.32 759.499 801.72 738.575C839.76 711.639 871.8 677.248 899.16 639.249C903.12 633.717 906.96 628.186 910.68 622.534C972.6 528.499 999.24 439.033 1048.2 365.8C1055.76 354.497 1063.68 343.554 1072.44 332.852C1108.44 289.442 1157.4 255.05 1215 230.76C1257.48 212.722 1305.12 200.336 1355.04 193.843C1389.24 189.394 1424.16 187.71 1459.08 187.951C1544.52 188.552 1627.92 197.811 1677.84 221.981" stroke="#134AA0" stroke-miterlimit="10"/>
<path d="M-323.16 1238.33C-317.64 1072.51 -228.6 915.103 -91.8002 822.149C-15.0002 770.081 75.9598 738.936 168.72 733.285C195.96 731.601 222.36 732.804 248.04 736.171C319.8 745.55 386.04 771.043 459 787.517C473.52 790.764 488.16 793.77 502.92 796.296C567.48 807.238 633.84 807.84 696.12 789.321C730.32 779.1 762.72 763.227 792.24 741.462C830.28 713.804 861.84 678.451 889.32 639.971C893.28 634.319 897.24 628.787 900.96 623.015C963.84 527.777 996.96 442.52 1050.36 375.902C1058.64 365.68 1067.16 355.7 1076.52 346.08C1114.8 307.119 1164.96 277.297 1223.4 256.614C1266.48 241.342 1314.72 231 1365.12 225.589C1399.68 221.861 1434.96 220.418 1470.24 220.298C1556.52 219.937 1640.52 223.665 1687.32 240.5" stroke="#134AA0" stroke-miterlimit="10"/>
<path d="M-336 1238.57C-331.08 1074.43 -243.6 918.229 -108.96 825.275C-31.8 772.125 60.1199 740.259 153.72 734.727C181.2 733.044 207.84 734.366 233.76 737.854C306.24 747.474 373.2 773.568 446.52 790.764C461.16 794.251 475.92 797.257 490.8 799.903C556.08 811.447 623.16 812.409 685.92 793.529C720.36 783.188 753 766.834 782.52 744.467C820.44 715.968 851.64 679.773 879.36 640.692C883.44 635.04 887.28 629.268 891 623.616C954.84 527.176 994.32 446.247 1052.28 386.002C1061.16 376.743 1070.4 367.844 1080.24 359.427C1120.8 324.795 1172.16 299.663 1231.44 282.587C1275.24 269.961 1323.96 261.784 1374.84 257.455C1409.76 254.449 1445.4 253.246 1480.92 252.645C1568.04 251.202 1652.76 249.518 1696.44 259.018" stroke="#134AA0" stroke-miterlimit="10"/>
<path d="M-348.84 1238.82C-344.4 1076.36 -258.72 921.476 -126.12 828.402C-48.5998 774.049 44.1602 741.582 138.72 736.05C166.44 734.487 193.32 735.689 219.6 739.297C292.8 749.157 360.36 775.853 434.16 793.65C448.92 797.257 463.8 800.504 478.8 803.27C544.68 815.415 612.6 816.738 675.84 797.498C710.52 786.916 743.28 770.201 773.04 747.233C810.96 717.892 841.68 680.855 869.52 641.293C873.6 635.521 877.44 629.749 881.28 623.977C946.08 526.454 991.92 449.735 1054.44 395.983C1064.04 387.806 1073.76 379.87 1084.2 372.534C1127.04 342.352 1179.6 321.789 1239.84 308.321C1284.24 298.34 1333.44 292.328 1384.92 289.081C1420.2 286.916 1456.2 285.834 1492.08 284.872C1580.04 282.467 1665.48 275.372 1706.04 277.417" stroke="#134AA0" stroke-miterlimit="10"/>
<path d="M-361.561 1238.94C-357.721 1078.04 -273.601 924.482 -143.161 831.529C-65.4005 776.093 28.4394 742.784 123.959 737.373C151.919 735.81 179.039 737.132 205.679 740.74C279.599 750.841 347.879 778.138 422.159 796.656C437.039 800.384 452.039 803.751 467.159 806.637C533.639 819.504 602.279 821.067 665.999 801.586C700.919 790.884 733.919 773.809 763.679 749.999C801.479 719.937 831.839 681.817 859.799 641.774C863.879 636.002 867.839 630.11 871.679 624.338C937.439 525.613 989.639 453.102 1056.84 405.964C1067.04 398.749 1077.48 391.895 1088.52 385.642C1133.64 359.788 1187.4 343.915 1248.48 334.054C1293.48 326.719 1343.28 322.871 1395.24 320.707C1430.88 319.264 1467.24 318.422 1503.48 317.099C1592.28 313.732 1678.32 301.106 1715.88 295.815" stroke="#134AA0" stroke-miterlimit="10"/>
<path d="M-374.4 1239.18C-371.04 1080.09 -288.72 927.609 -160.2 834.655C-82.0804 778.018 12.5997 744.107 109.08 738.816C137.28 737.253 164.64 738.576 191.52 742.303C266.16 752.645 335.16 780.543 409.8 799.663C424.8 803.511 439.92 807.118 455.16 810.124C522.36 823.592 591.72 825.637 655.92 805.675C691.08 794.732 724.2 777.296 754.08 752.885C791.88 721.981 821.76 683.02 849.84 642.496C853.92 636.604 857.88 630.711 861.84 624.819C928.56 524.891 987 456.589 1058.88 416.065C1069.8 409.932 1080.84 404.04 1092.36 398.869C1139.76 377.465 1194.72 366.161 1256.64 359.908C1302.24 355.219 1352.64 353.535 1405.08 352.453C1441.08 351.731 1477.8 351.13 1514.4 349.447C1604.04 345.118 1690.8 326.96 1725.12 314.333" stroke="#134AA0" stroke-miterlimit="10"/>
<path d="M-387.12 1239.42C-384.36 1081.89 -303.6 930.735 -177.36 837.782C-98.8801 780.062 -3.36014 745.43 94.0798 740.139C122.4 738.575 150.24 740.018 177.36 743.746C252.72 754.328 322.44 782.827 397.56 802.669C412.68 806.757 427.92 810.365 443.28 813.611C511.08 827.681 581.28 830.086 645.96 809.763C681.36 798.7 714.72 780.903 744.72 755.771C782.52 724.145 812.04 684.222 840.12 643.217C844.2 637.205 848.16 631.312 852.12 625.42C919.8 524.29 984.6 460.317 1061.04 426.286C1072.56 421.115 1084.32 416.305 1096.44 412.217C1146.12 395.262 1202.28 388.528 1265.04 386.002C1311.24 384.078 1362.24 384.439 1415.16 384.439C1451.52 384.439 1488.6 384.078 1525.56 382.034C1616.04 376.743 1703.4 353.174 1734.72 333.092" stroke="#134AA0" stroke-miterlimit="10"/>
<path d="M-399.96 1239.66C-397.8 1083.81 -318.72 933.741 -194.52 840.908C-115.68 781.986 -19.2 746.753 79.08 741.462C107.64 739.898 135.72 741.341 163.08 745.31C239.16 756.132 309.6 785.233 385.08 805.675C400.32 809.884 415.68 813.732 431.16 816.979C499.68 831.769 570.48 834.415 635.64 813.852C671.28 802.669 704.76 784.391 734.88 758.537C772.68 726.07 801.72 685.305 829.92 643.698C834 637.686 838.08 631.673 842.04 625.661C910.68 523.328 981.84 463.564 1062.84 436.027C1075.08 431.938 1087.32 428.21 1100.04 425.084C1152 412.458 1209.36 410.413 1273.08 411.496C1320 412.217 1371.48 414.742 1424.88 415.704C1461.6 416.426 1499.04 416.426 1536.36 413.78C1627.68 407.527 1715.76 378.427 1743.96 351.01" stroke="#134AA0" stroke-miterlimit="10"/>
<path d="M-412.8 1239.9C-411.12 1085.74 -333.84 936.868 -211.68 844.035C-132.6 783.91 -35.1598 747.955 64.2002 742.904C93.0002 741.461 121.32 742.904 149.04 746.873C225.72 757.936 297 787.517 372.96 808.801C388.32 813.13 403.8 817.099 419.4 820.586C488.52 835.978 560.16 838.984 625.8 818.061C661.68 806.637 695.4 788.118 725.52 761.543C763.32 728.354 791.88 686.627 820.2 644.54C824.28 638.407 828.36 632.395 832.44 626.262C902.04 522.727 979.44 467.171 1065.12 446.248C1077.96 443.121 1090.92 440.476 1104.12 438.431C1158.36 430.254 1216.92 432.78 1281.48 437.469C1329 440.836 1380.96 445.526 1434.84 447.57C1471.92 449.013 1509.72 449.254 1547.4 446.248C1639.56 439.033 1728.36 404.401 1753.44 369.648" stroke="#134AA0" stroke-miterlimit="10"/>
<path d="M-425.521 1240.02C-424.441 1087.54 -348.84 939.754 -228.6 847.041C-149.16 785.834 -50.8805 749.157 49.4395 744.107C78.4795 742.664 107.039 744.107 135.119 748.195C212.519 759.499 284.52 789.682 360.84 811.687C376.32 816.137 391.92 820.225 407.64 823.833C477.36 839.826 549.839 843.193 615.959 821.909C652.079 810.365 685.92 791.365 716.28 764.189C753.96 730.158 782.16 687.589 810.6 644.901C814.68 638.768 818.76 632.635 822.96 626.502C893.52 521.765 977.279 470.298 1067.52 456.108C1081.08 453.944 1094.64 452.38 1108.44 451.418C1164.96 447.57 1224.72 454.785 1290.12 463.083C1338.24 469.095 1390.8 475.949 1445.16 479.076C1482.6 481.24 1520.76 481.721 1558.8 478.354C1651.8 470.177 1741.2 430.014 1763.16 387.806" stroke="#134AA0" stroke-miterlimit="10"/>
<path d="M-438.36 1240.26C-437.76 1089.47 -363.96 942.76 -245.76 850.168C-166.08 787.758 -66.7203 750.48 34.4397 745.43C63.7197 743.987 92.5197 745.43 120.84 749.639C198.96 761.183 271.68 791.967 348.48 814.574C364.08 819.143 379.8 823.472 395.64 827.2C466.08 843.915 539.28 847.522 605.76 825.997C642.12 814.213 676.2 794.973 706.56 766.955C744.36 732.323 771.96 688.672 800.52 645.502C804.6 639.249 808.8 632.996 812.88 626.863C884.4 520.923 974.4 473.665 1069.32 466.089C1083.6 465.007 1097.76 464.406 1112.04 464.526C1170.84 465.127 1231.8 476.912 1298.04 488.816C1346.76 497.474 1399.92 506.493 1454.76 510.702C1492.56 513.708 1531.08 514.309 1569.48 510.582C1663.44 501.443 1753.44 455.868 1772.28 406.205" stroke="#134AA0" stroke-miterlimit="10"/>
<path d="M-451.08 1240.5C-451.08 1091.39 -379.08 945.766 -262.8 853.294C-182.88 789.561 -82.5601 751.803 19.5599 746.873C48.9599 745.43 78.1199 746.993 106.8 751.322C185.64 763.107 259.08 794.492 336.24 817.82C351.96 822.63 367.8 826.959 383.76 830.928C454.8 848.244 528.72 852.212 595.8 830.326C632.4 818.422 666.72 798.821 697.08 770.081C734.88 734.607 762 689.994 790.68 646.464C794.88 640.211 798.96 633.838 803.16 627.705C875.64 520.562 972 477.393 1071.48 476.431C1086.36 476.31 1101.12 476.791 1116 477.994C1177.08 482.924 1239.24 499.398 1306.32 514.91C1355.76 526.214 1409.4 537.397 1464.72 542.688C1502.88 546.416 1541.76 547.258 1580.4 543.049C1675.2 532.948 1765.8 481.842 1781.64 424.843" stroke="#134AA0" stroke-miterlimit="10"/>
<path d="M-463.92 1240.74C-464.52 1093.31 -394.2 948.772 -279.96 856.42C-199.8 791.485 -98.4 753.126 4.67995 748.195C34.32 746.752 63.72 748.316 92.64 752.765C172.2 764.79 246.24 796.776 324 820.706C339.84 825.636 355.8 830.206 371.88 834.174C443.52 852.091 518.28 856.42 585.84 834.294C622.68 822.149 657.24 802.188 687.72 772.847C725.52 736.651 752.28 691.077 780.96 646.945C785.16 640.572 789.24 634.198 793.56 627.945C867 519.6 969.72 480.519 1073.76 486.291C1089.36 487.133 1104.72 488.696 1120.2 490.981C1183.56 500.36 1246.92 521.404 1314.96 540.524C1365 554.593 1419.24 567.82 1475.04 574.194C1513.56 578.643 1552.8 579.725 1591.8 575.156C1687.44 564.093 1778.76 507.455 1791.48 443.121" stroke="#134AA0" stroke-miterlimit="10"/>
<path d="M-476.76 1240.86C-477.84 1095.12 -409.44 951.658 -297.12 859.427C-216.6 793.289 -114.36 754.208 -10.3198 749.518C19.5602 748.196 49.3202 749.759 78.4802 754.208C158.76 766.473 233.52 799.061 311.64 823.713C327.6 828.763 343.68 833.453 359.88 837.662C432.24 856.3 507.72 860.87 575.64 838.383C612.72 826.117 647.4 805.795 678 775.613C715.68 738.576 742.08 692.159 770.88 647.546C775.08 641.053 779.28 634.68 783.6 628.306C857.88 518.759 967.08 483.886 1075.68 496.272C1091.88 498.076 1107.96 500.721 1123.92 504.088C1189.44 517.917 1254.12 543.53 1323 566.257C1373.64 582.972 1428.36 598.364 1484.76 605.82C1523.64 610.99 1563.24 612.313 1602.6 607.383C1699.08 595.358 1791.12 533.189 1800.6 461.52" stroke="#134AA0" stroke-miterlimit="10"/>
<path d="M-489.481 1241.1C-491.161 1097.04 -424.441 954.665 -314.161 862.553C-233.401 795.213 -130.201 755.531 -25.2007 750.841C4.91931 749.518 34.9193 751.082 64.4393 755.651C145.439 768.157 220.919 801.346 299.399 826.719C315.479 831.89 331.679 836.82 347.999 841.029C420.959 860.269 497.159 865.199 565.679 842.351C602.999 829.845 637.919 809.162 668.519 778.378C706.199 740.62 732.119 693.241 761.039 648.148C765.239 641.654 769.439 635.161 773.759 628.787C848.999 518.037 964.559 487.253 1077.72 506.373C1094.64 509.259 1111.32 512.866 1127.76 517.316C1195.56 535.473 1261.44 565.776 1331.16 592.111C1382.4 611.471 1437.72 629.028 1494.6 637.566C1533.84 643.458 1573.8 645.021 1613.52 639.73C1710.84 626.743 1803.48 559.163 1809.96 480.038" stroke="#134AA0" stroke-miterlimit="10"/>
<path d="M-502.321 1241.34C-504.481 1098.96 -439.681 957.671 -331.321 865.68C-250.441 797.017 -146.041 756.853 -40.2007 752.164C-9.96074 750.841 20.3992 752.524 50.1592 757.094C131.879 769.84 208.079 803.631 287.039 829.605C303.239 834.896 319.559 839.946 335.999 844.395C409.559 864.357 486.599 869.528 555.599 846.44C593.159 833.813 628.199 812.77 658.919 781.264C696.599 742.664 722.039 694.444 751.079 648.749C755.279 642.135 759.599 635.641 763.919 629.148C840.119 517.195 962.159 490.379 1079.76 516.353C1097.4 520.201 1114.56 525.011 1131.72 530.423C1201.8 553.03 1268.88 587.902 1339.44 617.844C1391.28 639.85 1447.2 659.571 1504.56 669.191C1544.16 675.805 1584.48 677.609 1624.56 671.957C1722.72 658.008 1816.08 584.896 1819.44 498.436" stroke="#134AA0" stroke-miterlimit="10"/>
<path d="M-515.041 1241.58C-517.801 1100.89 -454.921 960.436 -348.361 868.806C-267.361 798.7 -161.881 758.176 -55.0807 753.606C-24.6007 752.284 5.99934 753.967 36.1193 758.777C118.559 771.764 195.479 806.156 274.799 832.851C291.119 838.383 307.559 843.433 324.119 848.123C398.399 868.686 476.159 874.337 545.519 850.768C583.319 838.022 618.599 816.497 649.439 784.27C687.119 744.948 712.079 695.766 741.239 649.59C745.439 642.976 749.759 636.363 754.199 629.869C831.359 516.714 959.759 494.107 1081.92 526.574C1100.16 531.384 1118.04 537.277 1135.68 543.77C1208.04 570.706 1276.32 610.268 1347.84 643.818C1400.4 668.469 1456.8 690.355 1514.52 701.057C1554.48 708.392 1595.16 710.437 1635.6 704.304C1734.6 689.273 1828.56 610.749 1828.8 516.954" stroke="#134AA0" stroke-miterlimit="10"/>
<path d="M-527.88 1241.7C-531.12 1102.69 -470.04 963.443 -365.52 871.933C-261 780.423 -115.08 738.335 21.9598 760.221C122.28 776.214 214.44 823.833 312.24 851.49C427.92 884.198 552.24 880.591 639.96 787.036C683.04 741.101 708.96 682.178 744.48 630.23C822.6 515.993 957.36 497.474 1084.08 536.556C1180.68 566.378 1266.24 623.376 1356.12 669.672C1446 715.969 1546.8 752.645 1646.64 736.652C1746.48 720.658 1841.16 636.724 1838.28 535.353" stroke="#134AA0" stroke-miterlimit="10"/>
<path d="M-502.32 1241.58C-501.24 1105.7 -437.28 972.582 -332.76 883.356C-320.76 873.135 -308.28 863.515 -295.32 854.496C-195.48 784.872 -70.2003 751.683 47.8797 766.113C102.96 772.726 155.4 788.96 207.72 805.915C248.04 819.023 288.36 832.491 329.64 842.351C441.72 869.407 562.08 861.591 648.36 768.999C690.84 723.304 717.24 665.343 753.12 614.477C831.12 503.006 963.96 484.006 1088.88 522.005C1112.64 529.22 1135.68 538.119 1158.36 548.099C1226.64 578.402 1290.72 618.927 1357.32 653.438C1372.56 661.375 1388.04 668.951 1403.88 676.045C1480.08 710.196 1562.4 732.563 1644 719.696C1742.52 704.184 1836.12 622.895 1836 524.049" stroke="#134AA0" stroke-miterlimit="10"/>
<path d="M-476.88 1241.34C-471.48 1108.7 -404.64 981.721 -300.12 894.66C-288.12 884.679 -275.64 875.3 -262.8 866.401C-163.56 797.859 -41.1599 762.505 73.6801 771.765C127.2 776.094 178.2 789.321 228.84 803.39C267.96 814.213 306.96 825.396 346.92 833.092C455.28 854.376 571.8 842.592 656.64 750.841C698.52 705.387 725.52 648.629 761.64 598.605C839.76 490.259 970.44 470.418 1093.68 507.335C1117.08 514.309 1139.88 523.088 1162.32 532.948C1229.76 562.77 1292.76 603.054 1358.4 637.325C1373.4 645.141 1388.76 652.717 1404.36 659.692C1479.48 693.602 1560.72 715.247 1641.36 702.861C1738.68 687.83 1831.08 609.187 1833.72 512.866" stroke="#134AA0" stroke-miterlimit="10"/>
<path d="M-451.32 1241.1C-441.6 1111.71 -371.88 990.74 -267.36 906.084C-255.36 896.343 -243 887.204 -230.16 878.426C-131.4 811.086 -12.0003 773.328 99.5997 777.536C151.68 779.46 201 789.802 250.08 800.985C288 809.523 325.68 818.301 364.32 823.953C469.2 839.225 581.64 823.712 665.16 732.683C706.56 687.469 734.04 631.793 770.28 582.731C848.28 477.272 977.04 456.95 1098.48 492.664C1121.64 499.398 1144.2 507.936 1166.28 517.676C1232.88 547.017 1294.92 587.06 1359.6 621.091C1374.36 628.907 1389.48 636.363 1404.84 643.337C1478.88 676.887 1559.16 697.931 1638.72 685.906C1734.72 671.356 1826.04 595.358 1831.44 501.563" stroke="#134AA0" stroke-miterlimit="10"/>
<path d="M-425.76 1240.86C-411.6 1114.72 -339.12 999.879 -234.48 917.387C-222.48 907.888 -210.12 898.869 -197.4 890.331C-99.2397 824.194 17.2802 784.03 125.64 783.188C176.16 782.707 224.04 790.163 271.32 798.46C307.92 804.713 344.4 811.086 381.84 814.574C483 824.073 591.6 804.473 673.68 714.405C714.48 669.432 742.44 614.838 779.04 566.738C856.92 464.285 983.88 443.242 1103.52 477.874C1126.44 484.487 1148.64 492.785 1170.48 502.284C1236.24 531.144 1297.2 570.947 1360.92 604.737C1375.44 612.433 1390.32 619.889 1405.56 626.743C1478.52 659.932 1557.72 680.495 1636.32 668.831C1731.12 654.761 1821.36 581.409 1829.4 490.139" stroke="#134AA0" stroke-miterlimit="10"/>
<path d="M-400.32 1240.74C-381.84 1117.72 -306.48 1009.02 -201.84 928.811C-189.84 919.672 -177.48 910.774 -164.88 902.356C-67.3203 837.301 46.3196 794.853 151.32 788.96C200.28 786.195 246.6 790.644 292.32 795.935C327.72 799.903 362.88 803.992 399 805.314C496.56 809.042 601.32 785.473 681.84 696.248C722.04 651.515 750.6 598.003 787.44 550.865C865.32 451.298 990.24 429.774 1108.08 463.083C1130.64 469.456 1152.6 477.513 1174.2 486.892C1239.12 515.151 1299.12 554.834 1361.76 588.263C1376.16 595.959 1390.8 603.294 1405.68 610.149C1477.56 642.977 1555.8 662.938 1633.2 651.755C1726.68 638.167 1815.84 567.46 1826.64 478.715" stroke="#134AA0" stroke-miterlimit="10"/>
<path d="M-374.76 1240.5C-351.96 1120.73 -273.72 1018.16 -169.08 940.235C-157.08 931.336 -144.72 922.678 -132.24 914.381C-35.1598 850.528 75.4802 805.795 177.24 794.852C224.76 789.682 269.52 791.365 313.56 793.65C347.64 795.454 381.6 797.017 416.4 796.295C510.36 794.131 611.16 766.594 690.24 678.21C729.84 633.717 758.88 581.288 796.08 535.112C873.84 438.552 996.84 416.305 1112.88 448.532C1135.2 454.665 1156.92 462.602 1178.16 471.741C1242.24 499.518 1301.16 538.96 1362.84 572.149C1377 579.725 1391.4 587.06 1406.04 593.794C1476.84 626.262 1554 645.742 1630.44 634.92C1722.6 621.813 1810.68 553.751 1824.24 467.412" stroke="#134AA0" stroke-miterlimit="10"/>
<path d="M-349.2 1240.26C-321.96 1123.74 -240.96 1027.18 -136.32 951.538C-124.32 942.88 -112.08 934.463 -99.4802 926.406C-3.00017 863.756 104.64 816.618 203.16 800.624C249.12 793.049 292.44 791.846 334.8 791.245C367.68 790.764 400.32 790.042 433.8 787.036C524.16 779.1 621 747.594 698.64 660.052C737.64 615.8 767.16 564.453 804.6 519.239C882.24 425.565 1003.32 402.717 1117.68 433.862C1139.64 439.874 1161.12 447.45 1182.12 456.589C1245.36 483.886 1303.2 523.087 1364.04 556.036C1377.96 563.612 1392.12 570.827 1406.64 577.44C1476.36 609.547 1552.56 628.426 1627.92 617.965C1718.88 605.338 1805.76 539.922 1822.08 456.108" stroke="#134AA0" stroke-miterlimit="10"/>
<path d="M-323.76 1240.02C-292.2 1126.62 -208.32 1036.31 -103.68 962.962C-91.6797 954.544 -79.4397 946.367 -66.9597 938.431C29.0403 876.863 133.8 827.44 229.08 806.396C273.48 796.536 315.24 792.327 356.04 788.84C387.72 786.194 419.04 782.948 451.2 777.897C537.84 764.189 630.84 728.715 707.16 642.015C745.68 598.123 775.68 547.739 813.36 503.607C890.88 412.818 1010.16 389.49 1122.6 419.432C1144.32 425.204 1165.44 432.659 1186.2 441.558C1248.6 468.374 1305.48 507.335 1365.24 540.043C1378.92 547.498 1392.96 554.713 1407.12 561.327C1475.76 593.193 1550.88 611.351 1625.28 601.37C1714.92 589.225 1800.72 526.454 1819.92 445.165" stroke="#134AA0" stroke-miterlimit="10"/>
<path d="M-298.2 1239.9C-262.32 1129.75 -175.56 1045.45 -70.9202 974.385C-58.9202 966.208 -46.6802 958.272 -34.3202 950.456C61.0798 890.09 162.96 838.262 254.88 812.168C297.84 799.903 338.04 792.808 377.16 786.435C407.52 781.504 437.64 775.973 468.48 768.758C551.52 749.277 640.56 709.715 715.44 623.857C753.36 580.206 783.84 530.903 821.88 487.734C899.16 399.831 1016.64 375.901 1127.4 404.761C1148.76 410.293 1169.76 417.508 1190.16 426.286C1251.72 452.621 1307.52 491.341 1366.32 523.688C1379.76 531.144 1393.56 538.239 1407.6 544.732C1475.16 576.238 1549.32 593.914 1622.64 584.294C1710.96 572.63 1795.68 512.505 1817.64 433.741" stroke="#134AA0" stroke-miterlimit="10"/>
<path d="M-272.641 1239.66C-232.441 1132.76 -142.801 1054.59 -38.0406 985.81C-26.0406 977.873 -13.8006 970.177 -1.5606 962.481C93.2394 903.198 192.119 849.085 280.799 817.94C322.199 803.27 360.959 793.289 398.399 784.03C427.559 776.815 456.359 768.878 485.879 759.499C565.199 734.367 650.519 690.716 723.839 605.699C761.159 562.289 792.119 514.069 830.519 471.861C907.679 386.964 1023.24 362.433 1132.2 390.091C1153.32 395.382 1173.96 402.477 1194.12 411.014C1254.84 436.868 1309.68 475.348 1367.52 507.455C1380.72 514.79 1394.28 521.885 1408.08 528.378C1474.56 559.523 1547.64 576.599 1619.88 567.339C1707 556.156 1790.52 498.677 1815.24 422.438" stroke="#134AA0" stroke-miterlimit="10"/>
<path d="M-247.2 1239.42C-202.56 1135.76 -110.16 1063.73 -5.40023 997.113C6.59976 989.537 18.7197 981.961 30.9597 974.386C125.28 916.305 221.28 859.908 306.72 823.712C346.68 806.637 383.76 793.77 419.64 781.625C447.6 772.125 474.96 761.904 503.4 750.36C579.12 719.456 660.48 671.716 732.36 587.662C769.08 544.492 800.52 497.354 839.16 456.108C916.08 374.098 1029.84 348.965 1137.12 375.541C1158 380.711 1178.28 387.566 1198.2 395.863C1258.08 421.236 1311.84 459.475 1368.72 491.341C1381.8 498.677 1395 505.651 1408.68 512.024C1474.08 542.808 1546.2 559.283 1617.36 550.504C1703.16 539.802 1785.72 484.968 1813.08 411.135" stroke="#134AA0" stroke-miterlimit="10"/>
<path d="M-221.641 1239.18C-172.681 1138.65 -77.4006 1072.75 27.3594 1008.54C39.3594 1001.2 51.4794 993.866 63.5994 986.411C157.439 929.532 250.439 870.73 332.639 829.484C371.039 810.124 406.679 794.251 440.879 779.22C467.519 767.435 493.679 754.929 520.799 741.221C592.799 704.665 670.319 652.837 740.759 569.504C776.999 526.575 808.799 480.519 847.799 440.235C924.599 360.99 1036.56 335.377 1141.92 360.87C1162.44 365.8 1182.6 372.414 1202.16 380.711C1261.2 405.603 1314 443.602 1369.8 475.228C1382.64 482.443 1395.72 489.417 1409.04 495.67C1473.36 526.094 1544.4 542.087 1614.6 533.669C1699.2 523.568 1780.56 471.26 1810.68 399.951" stroke="#134AA0" stroke-miterlimit="10"/>
<path d="M-196.2 1239.06C-142.92 1141.77 -44.7602 1082.01 59.9998 1019.96C71.9998 1012.87 84.1198 1005.77 96.2398 998.436C189.48 942.64 279.6 881.553 358.44 835.256C395.28 813.491 429.48 794.732 462 776.815C487.44 762.746 512.28 747.955 538.08 731.962C606.48 689.754 680.04 633.838 749.04 551.346C784.68 508.657 816.96 463.564 856.32 424.362C932.88 348.003 1043.04 321.909 1146.6 346.2C1166.88 350.889 1186.68 357.383 1206 365.44C1264.2 389.73 1315.92 427.609 1370.88 458.874C1383.48 466.089 1396.32 472.943 1409.52 479.196C1472.76 509.379 1542.84 524.651 1611.96 516.594C1695.24 506.974 1775.52 457.311 1808.4 388.528" stroke="#134AA0" stroke-miterlimit="10"/>
<path d="M-170.641 1238.82C-112.921 1144.78 -12.0006 1091.03 92.7594 1031.26C104.759 1024.41 116.879 1017.44 128.879 1010.46C221.519 955.867 308.759 892.375 384.359 841.028C419.759 816.858 452.279 795.213 483.239 774.41C507.359 758.056 530.999 740.98 555.479 722.823C620.159 674.843 689.879 614.838 757.559 533.188C792.599 490.74 825.359 446.729 865.079 408.489C941.399 335.016 1049.76 308.321 1151.64 331.409C1171.56 335.858 1191.12 342.111 1210.2 350.048C1267.56 373.857 1318.2 411.495 1372.2 442.52C1384.56 449.615 1397.16 456.469 1410.12 462.602C1472.28 492.424 1541.28 507.214 1609.44 499.518C1691.4 490.379 1770.6 443.482 1806.24 377.104" stroke="#134AA0" stroke-miterlimit="10"/>
<path d="M-145.08 1238.58C-83.0401 1147.79 20.7599 1100.17 125.52 1042.69C137.52 1036.07 149.52 1029.34 161.52 1022.49C253.68 969.095 337.92 903.318 410.28 846.801C444.12 820.346 475.2 795.694 504.48 771.885C527.4 753.246 549.72 733.886 572.88 713.564C633.96 659.932 699.72 595.839 765.96 515.031C800.4 472.823 833.64 429.894 873.6 392.616C949.68 321.909 1056.24 294.853 1156.32 316.739C1176 321.068 1195.2 327.08 1214.04 334.776C1270.56 358.105 1320.24 395.502 1373.16 426.286C1385.28 433.381 1397.76 440.115 1410.36 446.248C1471.44 475.709 1539.48 489.899 1606.44 482.684C1687.2 474.026 1765.2 429.774 1803.6 365.921" stroke="#134AA0" stroke-miterlimit="10"/>
<path d="M-119.641 1238.33C-53.2806 1150.67 53.3994 1109.19 158.279 1053.99C170.279 1047.62 182.279 1041.12 194.159 1034.39C285.719 982.082 367.079 914.02 436.199 852.572C468.599 823.712 497.999 796.175 525.719 769.48C547.439 748.676 568.439 726.911 590.279 704.304C647.759 645.021 709.679 576.719 774.359 496.873C808.319 454.906 841.799 412.938 882.239 376.743C958.079 308.922 1062.84 281.265 1161.24 302.068C1180.56 306.156 1199.64 311.928 1218.12 319.624C1273.8 342.472 1322.4 379.629 1374.48 410.173C1386.48 417.147 1398.6 423.881 1411.08 429.894C1471.08 458.994 1538.04 472.582 1604.04 465.728C1683.48 457.551 1760.4 415.945 1801.56 354.497" stroke="#134AA0" stroke-miterlimit="10"/>
<path d="M-94.0801 1238.21C-23.4001 1153.8 86.1599 1118.44 191.04 1065.53C203.04 1059.52 215.04 1053.15 226.8 1046.54C317.88 995.429 396.24 924.963 462 858.465C492.84 827.2 520.8 796.776 546.84 767.195C567.24 744.107 587.04 719.936 607.56 695.285C661.44 630.35 719.4 557.96 782.64 478.835C816 437.109 849.96 396.224 890.76 361.111C966.36 296.055 1069.44 267.917 1165.92 287.638C1185 291.486 1203.72 297.138 1221.96 304.593C1276.8 326.96 1324.44 363.876 1375.44 394.059C1387.2 401.034 1399.08 407.647 1411.32 413.66C1470.24 442.4 1536.24 455.507 1601.16 449.013C1679.28 441.317 1755.12 402.356 1799.04 343.434" stroke="#134AA0" stroke-miterlimit="10"/>
<path d="M-68.5205 1237.97C6.59949 1156.8 118.92 1127.46 223.8 1076.84C235.8 1071.07 247.68 1064.93 259.44 1058.44C349.92 1008.42 425.399 935.665 487.919 864.116C517.199 830.567 543.6 797.017 568.08 764.67C587.16 739.177 605.76 712.842 625.08 686.026C675.48 615.439 729.36 538.96 791.16 460.678C823.92 419.191 858.359 379.268 899.519 345.238C974.759 282.948 1076.16 254.449 1170.84 272.967C1189.68 276.575 1208.04 282.106 1226.04 289.321C1280.04 311.207 1326.6 347.883 1376.64 377.825C1388.16 384.68 1399.8 391.293 1411.92 397.186C1469.76 425.565 1534.68 438.071 1598.64 432.058C1675.56 424.843 1750.32 388.528 1796.88 332.13" stroke="#134AA0" stroke-miterlimit="10"/>
<path d="M-43.0801 1237.73C36.3599 1159.69 151.56 1136.6 256.44 1088.26C268.44 1082.73 280.32 1076.84 291.96 1070.47C381.96 1021.64 454.44 946.608 513.72 869.888C541.56 833.934 566.28 797.498 589.2 762.265C607.08 734.487 624.48 705.867 642.36 676.767C689.16 600.528 739.08 519.841 799.56 442.52C831.72 401.274 866.52 362.313 908.04 329.365C983.04 269.841 1082.64 240.861 1175.64 258.297C1194.12 261.784 1212.36 266.955 1230 274.05C1283.16 295.454 1328.64 331.89 1377.84 361.592C1389.12 368.446 1400.64 374.939 1412.4 380.711C1469.16 408.85 1533.12 420.634 1596 415.103C1671.6 408.369 1745.28 374.699 1794.6 320.827" stroke="#134AA0" stroke-miterlimit="10"/>
<path d="M-17.5205 1237.49C66.2395 1162.7 184.32 1145.74 289.2 1099.57C301.2 1094.27 313.079 1088.62 324.719 1082.37C414.119 1034.75 483.72 957.31 539.76 875.66C566.04 837.3 589.32 797.979 610.56 759.86C627.12 729.917 643.32 698.893 659.88 667.628C703.32 585.858 749.04 500.961 808.08 424.362C839.64 383.357 874.919 345.358 916.8 313.492C991.44 256.613 1089.36 227.393 1180.56 243.626C1198.8 246.873 1216.68 251.924 1234.08 258.778C1286.4 279.581 1330.92 315.897 1379.04 345.358C1390.08 352.092 1401.36 358.585 1413 364.357C1468.68 392.135 1531.56 403.439 1593.36 398.148C1667.76 391.895 1740.24 360.87 1792.32 309.523" stroke="#134AA0" stroke-miterlimit="10"/>
<path d="M8.04004 1237.37C106.32 1157.65 245.28 1153.2 357.36 1094.52C487.92 1026.21 570.48 886.122 631.68 757.575C708.96 595.478 774.6 407.527 925.32 297.859C1014.6 232.804 1135.32 203.222 1238.04 243.746C1301.4 268.758 1352.52 317.46 1413.36 348.123C1533.48 408.489 1689.48 387.926 1789.92 298.46" stroke="#134AA0" stroke-miterlimit="10"/>
</g>
<mask id="mask2_81_1356" style="mask-type:luminance" maskUnits="userSpaceOnUse" x="0" y="0" width="1440" height="962">
<path d="M1440 0H0V962H1440V0Z" fill="white"/>
</mask>
<g mask="url(#mask2_81_1356)">
<path d="M1586.64 763.708C1507.32 725.709 1407.84 733.765 1335.72 784.15C1311.84 800.745 1291.08 821.548 1267.32 838.383C1243.56 855.218 1215.6 868.445 1186.56 866.882C1140.84 864.357 1105.44 827.2 1064.04 807.479C998.88 776.454 921.48 790.042 853.08 812.89C784.56 835.737 717.36 867.243 645.36 870.73C622.68 871.812 599.4 870.009 578.64 860.749C557.88 851.49 539.88 834.174 534 812.168C523.8 773.809 554.28 733.886 591.48 720.418C628.68 706.95 669.96 713.563 708.48 722.943C747 732.322 785.76 744.347 825.24 741.221C893.28 735.81 949.32 686.988 996 637.205C1042.68 587.421 1088.28 532.226 1151.64 506.974C1206.72 484.968 1268.64 488.455 1326.84 499.398C1385.04 510.341 1442.04 528.378 1500.96 534.631C1559.88 540.884 1623 534.03 1671.24 499.398L1586.64 763.708Z" fill="#1EB899" fill-opacity="0.1"/>
</g>
<mask id="mask3_81_1356" style="mask-type:luminance" maskUnits="userSpaceOnUse" x="0" y="0" width="1440" height="962">
<path d="M1440 0H0V962H1440V0Z" fill="white"/>
</mask>
<g mask="url(#mask3_81_1356)">
<path d="M-247.68 760.461C-171.36 705.026 -91.0797 647.787 2.16028 633.838C60.2403 625.18 120.12 633.958 177.84 622.895C264.84 606.3 341.16 541.726 372.24 458.513C380.88 435.305 386.4 410.533 400.44 390.211C426.12 352.813 474.48 338.864 519.48 333.814C564.48 328.763 611.4 329.725 652.92 311.808C727.8 279.461 766.56 181.818 734.4 106.782C720 73.1118 686.28 42.448 650.4 50.0238C599.88 60.8463 589.68 132.636 545.76 159.812C516.96 177.729 479.28 172.438 447.84 159.692C416.4 146.825 387.96 127.224 355.8 116.642C275.64 90.1873 179.04 130.351 141.24 205.868C109.32 269.6 117.6 347.763 85.8003 411.736C64.9203 453.823 26.7603 487.012 -17.8797 501.803C-62.5197 516.594 -112.8 512.866 -154.68 491.702L-247.68 760.461Z" fill="#1EB899" fill-opacity="0.1"/>
</g>
<mask id="mask4_81_1356" style="mask-type:luminance" maskUnits="userSpaceOnUse" x="0" y="0" width="1440" height="962">
<path d="M1440 0H0V962H1440V0Z" fill="white"/>
</mask>
<g mask="url(#mask4_81_1356)">
<path d="M395.881 1081.29C401.281 968.133 464.161 861.471 560.161 801.707C608.761 771.404 665.041 753.607 722.281 749.759C787.321 745.31 839.881 768.037 902.161 779.581C950.641 788.6 1001.04 790.764 1048.8 777.176C1098.24 763.227 1142.88 732.563 1173.72 691.438C1225.32 622.775 1216.8 536.075 1250.4 459.956C1280.76 391.053 1344.96 338.143 1418.28 321.549C1491.6 304.954 1572.24 325.156 1629.24 374.338" stroke="#F2F2F2" stroke-miterlimit="10"/>
<path d="M387.601 1081.53C392.641 969.456 454.441 863.636 549.001 803.751C597.841 772.607 654.721 754.449 712.441 750.601C729.601 749.398 745.921 750.24 761.881 752.164C806.641 757.575 847.801 772.607 894.001 781.625C903.121 783.429 912.361 784.872 921.481 786.195C961.801 791.606 1002.84 791.125 1042.08 779.942C1063.68 773.809 1084.2 764.43 1103.16 752.164C1127.88 736.171 1149.6 715.608 1167.12 691.919C1169.64 688.432 1172.16 684.944 1174.44 681.457C1212.84 622.775 1217.4 556.277 1240.56 496.032C1244.16 486.772 1248.12 477.513 1252.68 468.615C1271.64 431.818 1301.04 400.553 1336.8 377.706C1363.2 360.871 1393.08 348.605 1424.52 342.232C1446 337.903 1468.08 336.34 1489.92 337.302C1543.68 339.586 1596.6 356.301 1635 386.364" stroke="#E7EBEC" stroke-miterlimit="10"/>
<path d="M379.32 1081.65C384 970.658 444.96 865.92 537.96 805.795C587.16 774.049 644.52 755.29 702.84 751.562C720.12 750.48 736.68 751.202 752.76 753.126C798 758.777 839.52 774.169 886.08 783.549C895.32 785.353 904.56 787.036 913.8 788.359C954.48 794.131 996.12 794.011 1035.6 782.587C1057.32 776.334 1078.08 766.714 1097.04 753.967C1121.76 737.493 1143.12 716.329 1160.76 692.279C1163.28 688.792 1165.8 685.184 1168.08 681.697C1207.08 622.173 1215.96 558.561 1242 502.525C1245.96 493.867 1250.4 485.329 1255.32 477.152C1275.72 443.241 1305.96 414.862 1342.2 394.42C1368.96 379.268 1399.2 368.446 1431 362.794C1452.72 358.946 1475.04 357.503 1497.12 358.225C1551.48 359.788 1604.76 373.015 1641.24 398.388" stroke="#DDE4E6" stroke-miterlimit="10"/>
<path d="M371.04 1081.77C375.36 971.861 435.24 867.965 526.92 807.84C576.36 775.372 634.32 756.132 693.24 752.405C710.64 751.322 727.44 752.044 743.76 754.088C789.48 759.86 831.48 775.613 878.28 785.473C887.52 787.397 896.88 789.201 906.24 790.524C947.4 796.777 989.4 796.777 1029.24 785.113C1051.08 778.739 1071.96 768.879 1091.04 755.651C1115.76 738.696 1136.88 716.931 1154.52 692.64C1157.16 689.033 1159.56 685.546 1161.96 681.938C1201.56 621.693 1214.64 560.726 1243.56 509.019C1248 501.082 1252.8 493.266 1258.08 485.57C1280.04 454.545 1311 429.173 1347.84 411.015C1375.08 397.667 1405.56 388.167 1437.72 383.237C1459.68 379.87 1482.12 378.668 1504.56 379.028C1559.52 379.99 1613.16 389.61 1647.6 410.173" stroke="#D2DDE1" stroke-miterlimit="10"/>
<path d="M362.761 1081.89C366.721 973.063 425.521 870.009 515.761 809.763C565.441 776.695 623.881 756.974 683.521 753.246C701.161 752.164 717.961 752.885 734.521 755.05C780.601 760.942 823.201 777.176 870.241 787.397C879.601 789.441 888.961 791.245 898.441 792.808C939.961 799.422 982.561 799.662 1022.64 787.878C1044.72 781.384 1065.6 771.283 1084.68 757.695C1109.4 740.259 1130.16 717.892 1148.04 693.241C1150.68 689.634 1153.08 686.026 1155.48 682.419C1195.68 621.332 1212.96 563.251 1244.76 515.752C1249.68 508.417 1254.84 501.322 1260.48 494.348C1283.88 466.209 1315.68 443.843 1353 428.09C1380.6 416.426 1411.56 408.369 1443.96 404.16C1466.16 401.274 1488.84 400.192 1511.52 400.312C1566.96 400.673 1621.08 406.685 1653.6 422.438" stroke="#C7D6DB" stroke-miterlimit="10"/>
<path d="M354.36 1082.01C357.96 974.266 415.68 872.053 504.6 811.808C554.4 778.018 613.56 757.816 673.8 754.088C691.56 753.006 708.6 753.848 725.28 756.012C771.84 762.145 814.92 778.619 862.2 789.321C871.68 791.486 881.16 793.41 890.64 794.973C932.64 802.068 975.72 802.429 1016.16 790.404C1038.36 783.79 1059.48 773.448 1078.56 759.379C1103.28 741.462 1123.8 718.494 1141.68 693.482C1144.32 689.875 1146.84 686.147 1149.24 682.539C1190.04 620.731 1211.52 565.416 1246.32 522.006C1251.72 515.392 1257.24 508.898 1263.24 502.645C1288.08 477.273 1320.72 458.033 1358.64 444.565C1386.6 434.584 1417.92 427.97 1450.68 424.363C1473.12 421.958 1496.04 420.996 1518.96 420.875C1575 420.635 1629.6 423.04 1659.96 433.983" stroke="#BCCFD5" stroke-miterlimit="10"/>
<path d="M346.08 1082.13C349.32 975.468 406.08 874.098 493.56 813.852C543.6 779.341 603.36 758.658 664.2 755.05C682.08 753.968 699.36 754.81 716.16 757.094C763.2 763.347 806.64 780.303 854.28 791.366C863.76 793.65 873.36 795.574 882.96 797.258C925.32 804.713 968.88 805.435 1009.68 793.169C1032 786.435 1053.24 775.853 1072.44 761.303C1097.04 742.785 1117.32 719.216 1135.32 693.963C1137.96 690.235 1140.48 686.628 1142.88 682.9C1184.28 620.37 1209.96 567.701 1247.64 528.619C1253.4 522.607 1259.4 516.835 1265.76 511.303C1292.04 488.816 1325.4 472.463 1363.92 461.4C1392.36 453.223 1423.92 447.932 1457.04 445.046C1479.72 443.122 1502.88 442.28 1525.92 441.919C1582.44 440.957 1637.52 439.875 1665.84 446.128" stroke="#B2C8CF" stroke-miterlimit="10"/>
<path d="M337.801 1082.25C340.681 976.671 396.361 876.142 482.401 815.776C532.681 780.543 593.041 759.379 654.361 755.772C672.361 754.689 689.761 755.531 706.921 757.816C754.441 764.189 798.361 781.505 846.241 793.169C855.841 795.454 865.441 797.619 875.161 799.422C918.001 807.359 962.041 808.201 1003.08 795.695C1025.52 788.84 1046.88 778.018 1066.2 762.987C1090.8 743.987 1110.84 719.817 1128.84 694.204C1131.48 690.476 1134 686.748 1136.52 683.02C1178.64 619.649 1208.4 569.865 1248.96 534.993C1255.2 529.702 1261.56 524.531 1268.28 519.721C1296.12 500.12 1330.2 486.772 1369.32 477.994C1398.12 471.501 1430.16 467.653 1463.52 465.488C1486.44 464.045 1509.84 463.444 1533.12 462.722C1590.24 461.159 1645.68 456.469 1672.08 457.912" stroke="#A7C1C9" stroke-miterlimit="10"/>
<path d="M329.521 1082.49C332.041 977.993 386.641 878.306 471.361 817.941C521.881 781.986 582.721 760.341 644.761 756.854C662.881 755.771 680.521 756.733 697.801 759.018C745.801 765.632 790.2 783.309 838.32 795.334C848.04 797.739 857.761 800.023 867.481 801.827C910.681 810.124 955.2 811.207 996.6 798.46C1019.28 791.486 1040.64 780.423 1060.08 765.031C1084.68 745.43 1104.36 720.779 1122.48 694.805C1125.12 691.077 1127.64 687.229 1130.16 683.501C1172.88 619.408 1206.72 572.27 1250.4 541.727C1257 537.037 1263.84 532.588 1270.92 528.499C1300.2 511.784 1335.12 501.443 1374.72 495.069C1404 490.38 1436.28 487.854 1470 486.411C1493.16 485.449 1516.8 484.968 1540.32 484.006C1598.04 481.842 1653.84 473.665 1678.2 470.178" stroke="#9CBAC4" stroke-miterlimit="10"/>
<path d="M321.12 1082.61C323.28 979.316 376.8 880.23 460.2 819.865C510.96 783.068 572.4 761.063 635.04 757.575C653.28 756.613 671.16 757.455 688.56 759.86C737.04 766.594 781.8 784.632 830.28 797.138C840 799.663 849.84 801.948 859.68 803.872C903.36 812.65 948.36 813.852 990 800.986C1012.8 793.891 1034.4 782.587 1053.72 766.714C1078.32 746.633 1097.76 721.38 1115.88 695.045C1118.52 691.197 1121.16 687.349 1123.68 683.622C1167 618.687 1205.04 574.435 1251.6 548.1C1258.68 544.132 1265.88 540.284 1273.32 536.917C1304.04 522.968 1339.8 515.632 1380 511.664C1409.64 508.658 1442.4 507.576 1476.36 506.854C1499.76 506.373 1523.64 506.012 1547.4 504.93C1605.6 502.164 1661.88 490.38 1684.2 482.083" stroke="#92B3BE" stroke-miterlimit="10"/>
<path d="M312.841 1082.73C314.641 980.519 367.081 882.275 449.041 821.909C500.041 784.391 562.081 761.904 625.321 758.537C643.801 757.575 661.801 758.417 679.441 760.942C728.401 767.797 773.641 786.315 822.361 799.182C832.201 801.827 842.041 804.232 852.001 806.277C896.041 815.416 941.641 816.979 983.521 803.751C1006.44 796.536 1028.16 784.992 1047.6 768.638C1072.2 748.076 1091.28 722.222 1109.52 695.526C1112.16 691.678 1114.8 687.83 1117.32 683.982C1161.24 618.326 1203.36 576.719 1252.92 554.593C1260.48 551.226 1268.04 548.1 1275.84 545.454C1308.12 534.391 1344.6 530.062 1385.4 528.379C1415.4 527.056 1448.52 527.417 1482.84 527.297C1506.48 527.297 1530.48 527.056 1554.48 525.733C1613.28 522.366 1670.04 506.974 1690.32 493.987" stroke="#87ACB8" stroke-miterlimit="10"/>
<path d="M304.561 1082.85C306.001 981.721 357.241 884.198 438.001 823.953C489.121 785.714 551.761 762.746 615.721 759.379C634.321 758.417 652.441 759.259 670.321 761.904C719.641 768.879 765.481 787.758 814.441 801.106C824.281 803.871 834.241 806.276 844.321 808.441C888.721 818.061 934.801 819.744 977.161 806.397C1000.32 799.061 1022.04 787.277 1041.6 770.562C1066.08 749.518 1085.04 723.063 1103.28 696.007C1105.92 692.039 1108.56 688.191 1111.2 684.343C1155.72 617.845 1201.92 579.004 1254.6 561.207C1262.52 558.561 1270.56 556.156 1278.72 554.112C1312.44 545.935 1349.76 544.612 1391.04 545.214C1421.52 545.695 1454.88 547.378 1489.56 547.979C1513.44 548.46 1537.68 548.46 1561.92 546.777C1621.2 542.688 1678.44 523.809 1696.68 506.012" stroke="#7CA6B2" stroke-miterlimit="10"/>
<path d="M296.28 1082.97C297.36 982.924 347.52 886.243 426.96 825.877C478.32 786.916 541.56 763.468 606.12 760.221C624.84 759.259 643.2 760.221 661.2 762.746C711 769.961 757.32 789.201 806.64 802.91C816.6 805.675 826.68 808.321 836.76 810.485C881.64 820.466 928.2 822.39 970.8 808.802C994.08 801.346 1015.92 789.321 1035.6 772.126C1060.08 750.601 1078.68 723.424 1097.04 696.128C1099.68 692.159 1102.32 688.191 1104.96 684.343C1150.08 617.123 1200.48 581.048 1256.04 567.46C1264.44 565.416 1272.84 563.732 1281.36 562.41C1316.52 557.119 1354.56 558.682 1396.56 561.808C1427.4 563.973 1461.24 567.099 1496.16 568.422C1520.28 569.384 1544.76 569.504 1569.24 567.58C1629.12 562.891 1686.72 540.404 1703.04 517.797" stroke="#719FAC" stroke-miterlimit="10"/>
<path d="M288 1083.09C288.72 984.126 337.8 888.167 415.8 827.921C467.4 788.119 531.24 764.429 596.28 761.062C615.12 760.1 633.72 761.062 651.84 763.708C702.12 771.043 748.8 790.644 798.48 804.954C808.56 807.84 818.64 810.485 828.84 812.89C874.08 823.352 921.12 825.396 964.08 811.688C987.48 804.112 1009.56 791.846 1029.24 774.17C1053.72 752.164 1072.08 724.386 1090.44 696.729C1093.08 692.76 1095.72 688.672 1098.48 684.824C1144.32 616.762 1198.68 583.453 1257.24 574.194C1266 572.751 1274.88 571.789 1283.76 571.188C1320.48 568.662 1359.24 573.352 1401.72 578.763C1432.92 582.732 1467.12 587.181 1502.4 589.225C1526.64 590.668 1551.48 590.909 1576.2 588.744C1636.68 583.453 1694.64 557.359 1708.92 529.942" stroke="#6798A6" stroke-miterlimit="10"/>
<path d="M279.601 1083.21C279.961 985.328 327.841 890.09 404.641 829.845C456.361 789.321 520.921 765.151 586.561 761.904C605.521 760.942 624.241 761.904 642.721 764.67C693.481 772.125 740.641 792.207 790.561 806.877C800.641 809.884 810.841 812.649 821.161 815.054C866.881 825.877 914.401 828.282 957.601 814.213C981.241 806.637 1003.32 794.131 1023 775.853C1047.48 753.366 1065.48 724.987 1083.96 696.969C1086.6 692.88 1089.36 688.912 1092 684.824C1138.44 616.041 1196.88 585.377 1258.44 580.447C1267.68 579.725 1276.92 579.364 1286.16 579.485C1324.32 579.845 1363.92 587.542 1407 595.238C1438.68 600.889 1473.12 606.781 1508.76 609.427C1533.24 611.351 1558.32 611.712 1583.28 609.307C1644.24 603.414 1702.68 573.713 1714.92 541.606" stroke="#5C91A1" stroke-miterlimit="10"/>
<path d="M271.32 1083.45C271.32 986.651 318.12 892.135 393.6 832.01C445.56 790.644 510.6 766.113 576.96 762.866C596.04 761.904 615 762.986 633.6 765.752C684.84 773.448 732.48 793.77 782.64 808.922C792.84 812.048 803.16 814.934 813.48 817.339C859.56 828.643 907.68 831.168 951.12 816.978C974.88 809.282 997.2 796.536 1016.88 777.897C1041.36 754.929 1059.12 725.949 1077.72 697.57C1080.36 693.482 1083.12 689.393 1085.88 685.305C1132.92 615.8 1195.56 587.662 1260.12 587.06C1269.84 586.94 1279.44 587.301 1289.04 588.023C1328.64 591.269 1369.08 601.971 1412.64 611.952C1444.68 619.287 1479.6 626.623 1515.48 629.99C1540.2 632.395 1565.52 632.996 1590.6 630.23C1652.16 623.616 1710.96 590.427 1721.28 553.511" stroke="#518A9B" stroke-miterlimit="10"/>
<path d="M263.04 1083.57C262.68 987.854 308.28 894.059 382.44 834.054C434.52 791.967 500.28 766.955 567.24 763.828C586.44 762.866 605.64 763.948 624.36 766.834C676.08 774.651 724.08 795.454 774.6 810.966C784.92 814.093 795.24 817.099 805.68 819.744C852.24 831.409 900.72 834.174 944.64 819.744C968.52 811.928 990.96 798.941 1010.76 779.822C1035.24 756.253 1052.64 726.791 1071.36 698.052C1074.12 693.963 1076.76 689.754 1079.52 685.666C1127.16 615.319 1193.88 589.947 1261.44 593.674C1271.52 594.276 1281.6 595.238 1291.56 596.681C1332.72 602.813 1373.88 616.402 1418.04 628.908C1450.56 638.047 1485.72 646.584 1521.96 650.793C1546.92 653.679 1572.48 654.401 1597.8 651.394C1659.84 644.179 1719.24 607.503 1727.4 565.656" stroke="#478395" stroke-miterlimit="10"/>
<path d="M254.761 1083.69C254.041 989.056 298.561 895.983 371.401 835.978C423.601 793.049 490.081 767.676 557.641 764.55C577.081 763.708 596.281 764.67 615.361 767.556C667.441 775.492 716.041 796.656 766.801 812.65C777.121 815.896 787.561 819.023 798.121 821.668C845.041 833.814 894.121 836.82 938.281 822.149C962.401 814.213 984.841 800.985 1004.76 781.385C1029.24 757.335 1046.4 727.152 1065.12 698.172C1067.88 693.963 1070.52 689.874 1073.4 685.666C1121.64 614.598 1192.56 591.871 1263 599.927C1273.56 601.13 1284 602.813 1294.32 604.978C1336.92 613.876 1378.92 630.591 1423.56 645.382C1456.44 656.204 1491.96 666.185 1528.56 671.115C1553.76 674.482 1579.56 675.324 1605.12 672.077C1667.76 664.261 1727.52 623.977 1733.76 577.32" stroke="#3C7C8F" stroke-miterlimit="10"/>
<path d="M246.361 1083.81C245.281 990.259 288.601 897.787 360.241 838.023C412.681 794.252 479.761 768.518 547.921 765.512C567.481 764.67 586.921 765.632 606.121 768.638C658.681 776.815 707.761 798.34 758.761 814.814C769.201 818.181 779.641 821.308 790.321 824.194C837.721 836.7 887.161 839.947 931.681 825.036C955.921 816.979 978.601 803.511 998.521 783.549C1023 759.018 1039.8 728.234 1058.64 699.014C1061.4 694.805 1064.16 690.596 1066.92 686.387C1115.76 614.478 1190.76 594.516 1264.32 606.902C1275.24 608.706 1286.16 611.111 1296.84 613.997C1340.88 625.781 1383.72 645.502 1428.96 662.578C1462.2 675.204 1498.2 686.508 1535.04 692.039C1560.48 695.887 1586.4 696.849 1612.32 693.482C1675.44 685.065 1735.68 641.173 1739.88 589.827" stroke="#317589" stroke-miterlimit="10"/>
<path d="M238.081 1083.93C236.641 991.461 278.761 899.71 349.081 840.066C401.641 795.454 469.321 769.359 538.081 766.353C557.761 765.511 577.441 766.594 596.761 769.6C649.801 777.897 699.361 799.783 750.601 816.738C761.161 820.225 771.721 823.472 782.401 826.358C830.161 839.345 880.201 842.712 924.961 827.681C949.321 819.504 972.121 805.795 992.041 785.353C1016.52 760.341 1033.08 728.955 1051.92 699.374C1054.68 695.045 1057.44 690.836 1060.32 686.628C1109.88 613.996 1188.96 596.44 1265.4 613.395C1276.8 615.92 1288.08 618.927 1299.12 622.534C1344.6 637.205 1388.16 659.812 1434 679.292C1467.72 693.602 1503.96 706.348 1541.16 712.601C1566.84 716.93 1593 718.133 1619.04 714.405C1682.76 705.266 1743.36 657.888 1745.52 601.731" stroke="#266E84" stroke-miterlimit="10"/>
<path d="M229.8 1084.05C228 992.664 268.8 901.515 338.04 841.991C390.6 796.536 459.12 770.081 528.48 767.195C548.28 766.354 568.08 767.436 587.64 770.562C641.16 778.98 691.08 801.346 742.68 818.662C753.24 822.27 763.92 825.517 774.72 828.523C822.96 841.871 873.48 845.478 918.48 830.206C942.96 821.909 965.88 807.96 985.92 787.037C1010.4 761.544 1026.6 729.557 1045.56 699.615C1048.32 695.286 1051.08 690.957 1053.96 686.748C1104.12 613.275 1187.4 598.605 1266.72 619.649C1278.6 622.775 1290.24 626.623 1301.64 630.832C1348.68 648.388 1392.96 674.002 1439.4 695.887C1473.48 711.88 1510.08 726.07 1547.64 733.044C1573.56 737.854 1599.96 739.177 1626.24 735.209C1690.56 725.469 1751.52 674.483 1751.76 613.516" stroke="#1C677E" stroke-miterlimit="10"/>
<path d="M221.52 1084.17C219.36 993.866 259.08 903.438 327 844.035C394.92 784.631 489.6 757.335 578.64 771.524C643.8 781.866 703.68 812.77 767.04 830.807C842.16 852.092 922.92 849.687 979.8 788.96C1007.76 759.138 1024.56 720.899 1047.72 687.109C1098.48 612.914 1185.96 600.889 1268.28 626.262C1331.04 645.622 1386.6 682.659 1444.92 712.722C1503.36 742.784 1568.76 766.594 1633.56 756.252C1698.36 745.911 1759.92 691.317 1758 625.541" stroke="#116078" stroke-miterlimit="10"/>
<path d="M238.08 1084.05C238.8 995.79 280.32 909.331 348.24 851.37C356.04 844.756 364.08 838.503 372.48 832.611C437.28 787.397 518.64 765.872 595.32 775.132C631.08 779.461 665.16 789.922 699.12 800.985C725.28 809.523 751.44 818.301 778.32 824.675C851.04 842.231 929.28 837.181 985.32 777.056C1012.92 747.474 1030.08 709.836 1053.36 676.647C1104 604.256 1190.28 591.871 1271.4 616.642C1286.76 621.332 1301.76 627.104 1316.52 633.597C1360.92 653.318 1402.44 679.653 1445.76 702.02C1455.6 707.19 1465.8 712.121 1476 716.69C1525.44 738.936 1578.96 753.366 1631.88 745.069C1695.84 734.968 1756.68 682.178 1756.56 618.085" stroke="#11677E" stroke-miterlimit="10"/>
<path d="M254.641 1083.93C258.121 997.834 301.561 915.343 369.481 858.825C377.281 852.332 385.321 846.199 393.721 840.427C458.161 795.935 537.601 772.967 612.241 778.98C647.041 781.745 680.041 790.403 712.921 799.542C738.361 806.517 763.681 813.852 789.601 818.782C860.041 832.611 935.641 824.915 990.721 765.391C1017.96 735.93 1035.48 699.013 1058.88 666.546C1109.52 596.2 1194.48 583.333 1274.52 607.263C1289.76 611.832 1304.52 617.484 1319.04 623.857C1362.84 643.217 1403.76 669.432 1446.36 691.678C1456.08 696.728 1466.04 701.659 1476.12 706.228C1524.84 728.234 1577.64 742.303 1629.96 734.246C1693.08 724.506 1753.2 673.4 1754.88 610.87" stroke="#126E85" stroke-miterlimit="10"/>
<path d="M271.2 1083.81C277.56 999.759 322.8 921.236 390.72 866.281C398.52 860.028 406.56 854.016 414.84 848.364C478.92 804.593 556.56 780.062 628.92 782.828C662.76 784.03 694.8 790.764 726.6 797.979C751.2 803.511 775.68 809.163 800.76 812.89C868.8 822.871 941.88 812.65 996.12 753.607C1023 724.266 1040.88 688.071 1064.4 656.205C1115.04 587.782 1198.68 574.555 1277.52 597.643C1292.52 602.092 1307.16 607.624 1321.56 613.877C1364.88 632.876 1405.08 658.97 1447.08 680.976C1456.68 686.027 1466.52 690.837 1476.48 695.406C1524.6 717.171 1576.68 730.88 1628.28 723.064C1690.68 713.684 1749.96 664.261 1753.44 603.295" stroke="#12748B" stroke-miterlimit="10"/>
<path d="M287.761 1083.69C296.881 1001.8 344.041 927.248 411.961 873.616C419.761 867.484 427.801 861.591 436.081 856.06C499.801 813.131 575.401 787.036 645.721 786.555C678.481 786.315 709.561 791.125 740.401 796.416C764.161 800.504 787.921 804.593 812.161 806.878C877.921 813.01 948.361 800.384 1001.64 741.822C1028.16 712.602 1046.28 677.128 1070.04 645.983C1120.68 579.485 1203 565.776 1280.76 588.263C1295.64 592.592 1310.04 597.883 1324.2 604.136C1366.92 622.895 1406.52 648.749 1447.8 670.634C1457.28 675.685 1466.88 680.495 1476.72 684.944C1524.12 706.469 1575.6 719.817 1626.48 712.241C1688.04 703.102 1746.6 655.483 1751.88 596.2" stroke="#137B92" stroke-miterlimit="10"/>
<path d="M304.32 1083.57C316.32 1003.73 365.28 933.14 433.2 881.072C441 875.059 449.04 869.408 457.2 863.876C520.56 821.668 594.36 794.131 662.52 790.283C694.32 788.479 724.44 791.365 754.08 794.853C777 797.498 799.92 800.023 823.32 800.985C886.68 803.39 954.72 788.119 1006.92 730.158C1033.08 701.178 1051.56 666.426 1075.44 635.762C1125.96 571.188 1207.08 557.118 1283.64 578.763C1298.28 582.852 1312.56 588.143 1326.6 594.276C1368.72 612.674 1407.72 638.407 1448.4 660.173C1457.76 665.103 1467.24 669.913 1476.96 674.362C1523.64 695.646 1574.4 708.633 1624.68 701.418C1685.4 692.64 1743.24 646.705 1750.32 588.985" stroke="#138298" stroke-miterlimit="10"/>
<path d="M320.88 1083.45C335.76 1005.65 386.52 939.032 454.44 888.527C462.24 882.755 470.28 877.104 478.44 871.813C541.44 830.326 613.32 801.226 679.44 794.131C710.28 790.764 739.32 791.846 768 793.41C790.2 794.612 812.16 795.574 834.72 795.093C895.68 793.77 961.2 775.853 1012.56 718.494C1038.24 689.634 1057.08 655.603 1081.2 625.541C1131.72 562.77 1211.52 548.34 1287 569.384C1301.52 573.352 1315.56 578.523 1329.36 584.535C1371 602.573 1409.28 628.186 1449.36 649.711C1458.48 654.641 1467.84 659.331 1477.44 663.78C1523.4 684.944 1573.56 697.45 1623.12 690.476C1683 682.058 1740.12 637.806 1749 581.77" stroke="#13899F" stroke-miterlimit="10"/>
<path d="M337.44 1083.33C355.08 1007.7 407.76 945.045 475.68 895.863C483.48 890.211 491.4 884.8 499.56 879.509C562.2 838.744 632.16 808.201 696.12 797.859C726 792.929 754.08 792.087 781.68 791.847C803.04 791.606 824.28 791.005 846 789.081C904.68 783.91 967.56 763.467 1017.96 706.589C1043.28 677.849 1062.48 644.54 1086.84 615.199C1137.24 554.353 1215.96 539.562 1290.12 559.764C1304.4 563.612 1318.32 568.662 1332 574.555C1373.04 592.352 1410.6 617.724 1450.08 639.129C1459.08 644.059 1468.32 648.749 1477.68 653.078C1522.92 674.001 1572.36 686.147 1621.32 679.413C1680.36 671.236 1736.76 628.787 1747.44 574.314" stroke="#148FA5" stroke-miterlimit="10"/>
<path d="M354 1083.09C374.52 1009.5 429 950.817 496.92 903.198C504.72 897.786 512.64 892.375 520.8 887.204C583.08 847.281 651.12 815.175 713.04 801.466C741.96 794.973 768.96 792.327 795.48 790.042C816 788.239 836.4 786.194 857.28 782.948C913.56 774.049 973.92 750.961 1023.48 694.684C1048.44 666.185 1067.88 633.477 1092.48 604.737C1142.76 545.815 1220.28 530.663 1293.36 550.144C1307.4 553.871 1321.2 558.681 1334.64 564.453C1375.2 581.89 1412.04 607.142 1450.92 628.426C1459.8 633.236 1468.92 637.926 1478.16 642.255C1522.68 662.938 1571.52 674.723 1619.76 668.229C1677.96 660.413 1733.64 619.648 1746.12 566.738" stroke="#1496AB" stroke-miterlimit="10"/>
<path d="M370.681 1082.97C393.961 1011.42 450.361 956.709 518.281 910.533C526.081 905.242 534.001 900.071 542.041 895.021C603.961 855.819 670.081 822.149 729.841 805.194C757.681 797.258 783.841 792.568 809.281 788.479C828.961 785.233 848.521 781.625 868.561 776.935C922.441 764.309 980.281 738.576 1028.88 682.9C1053.48 654.521 1073.28 622.534 1098 594.516C1148.16 537.518 1224.48 521.885 1296.36 540.644C1310.28 544.252 1323.84 548.941 1337.16 554.593C1377.12 571.669 1413.36 596.801 1451.52 617.845C1460.28 622.655 1469.16 627.224 1478.28 631.553C1522.08 651.996 1570.32 663.419 1617.84 657.166C1675.2 649.591 1730.28 610.509 1744.44 559.403" stroke="#149DB2" stroke-miterlimit="10"/>
<path d="M387.24 1082.85C413.4 1013.47 471.6 962.722 539.52 917.989C547.32 912.818 555.24 907.767 563.16 902.837C624.72 864.357 689.04 829.244 746.64 809.042C773.52 799.542 798.6 793.049 822.96 787.036C841.92 782.347 860.52 777.176 879.84 771.163C931.32 754.809 986.76 726.43 1034.4 671.236C1058.64 642.977 1078.68 611.712 1103.64 584.295C1153.68 529.1 1228.8 513.227 1299.6 531.144C1313.28 534.631 1326.72 539.201 1339.8 544.733C1379.28 561.447 1414.8 586.459 1452.36 607.383C1461 612.193 1469.76 616.762 1478.76 620.971C1521.96 641.173 1569.36 652.236 1616.28 646.344C1672.8 639.129 1727.16 601.731 1743.12 552.188" stroke="#15A4B8" stroke-miterlimit="10"/>
<path d="M403.801 1082.73C432.721 1015.39 492.841 968.614 560.761 925.444C568.561 920.514 576.481 915.584 584.401 910.653C645.601 872.895 708.001 836.339 763.441 812.77C789.361 801.707 813.481 793.289 836.761 785.473C854.881 779.34 872.761 772.727 891.121 765.151C940.201 745.069 993.121 714.165 1039.8 659.451C1063.68 631.433 1084.08 600.769 1109.16 574.074C1159.08 520.803 1233 504.449 1302.6 521.765C1316.16 525.132 1329.36 529.581 1342.2 534.992C1381.08 551.467 1416 576.359 1452.96 597.042C1461.48 601.731 1470 606.301 1478.88 610.509C1521.36 630.471 1568.16 641.173 1614.36 635.522C1670.04 628.667 1723.68 592.953 1741.44 545.093" stroke="#15AABF" stroke-miterlimit="10"/>
<path d="M420.36 1082.61C452.16 1017.31 514.08 974.506 582 932.779C589.8 927.969 597.72 923.279 605.52 918.469C666.36 881.553 726.84 843.313 780.24 816.618C805.2 803.991 828.36 793.77 850.56 783.91C867.84 776.334 884.88 768.157 902.4 759.258C949.2 735.449 999.48 701.899 1045.2 647.787C1068.72 619.889 1089.36 589.946 1114.68 563.852C1164.48 512.385 1237.2 495.791 1305.72 512.265C1319.04 515.512 1332.12 519.72 1344.84 525.132C1383.24 541.245 1417.44 566.017 1453.68 586.459C1461.96 591.149 1470.48 595.598 1479.12 599.807C1520.88 619.648 1567.08 629.99 1612.56 624.458C1667.4 617.844 1720.32 583.934 1739.88 537.638" stroke="#16B1C5" stroke-miterlimit="10"/>
<path d="M436.92 1082.49C471.48 1019.36 535.32 980.519 603.24 940.235C611.04 935.665 618.84 930.976 626.76 926.286C687.36 890.091 745.8 850.408 797.04 820.346C821.04 806.276 843.12 794.011 864.24 782.347C880.8 773.208 896.88 763.588 913.68 753.246C958.08 725.829 1005.84 689.514 1050.72 636.002C1073.88 608.225 1094.88 579.004 1120.32 553.511C1170 503.968 1241.52 487.013 1308.84 502.766C1322.04 505.772 1334.88 509.981 1347.36 515.272C1385.16 531.024 1418.76 555.676 1454.4 575.998C1462.56 580.688 1470.96 585.137 1479.48 589.225C1520.52 608.826 1566 618.807 1610.88 613.516C1665 607.263 1717.08 575.036 1738.44 530.303" stroke="#16B8CC" stroke-miterlimit="10"/>
<path d="M453.48 1082.37C490.92 1021.28 556.56 986.411 624.48 947.69C632.28 943.241 640.08 938.792 647.88 934.102C708.12 898.628 764.64 857.503 813.84 824.073C836.76 808.441 858 794.372 878.04 780.783C893.76 770.201 909.001 759.018 924.961 747.234C966.961 716.089 1012.2 677.128 1056.12 624.098C1078.92 596.44 1100.16 567.941 1125.96 543.169C1175.52 495.43 1245.84 478.114 1311.96 493.145C1324.92 496.031 1337.64 500.12 1350 505.291C1387.32 520.803 1420.2 545.214 1455.24 565.295C1463.28 569.865 1471.44 574.314 1479.84 578.403C1520.16 597.763 1565.04 607.383 1609.2 602.332C1662.48 596.32 1713.84 565.897 1737 522.847" stroke="#16BFD2" stroke-miterlimit="10"/>
<path d="M470.04 1082.13C510.36 1023.09 577.8 992.183 645.72 954.905C653.52 950.576 661.32 946.247 669.12 941.798C729 907.046 783.6 864.357 830.64 827.801C852.6 810.605 872.76 794.612 891.84 779.22C906.72 767.195 921.24 754.569 936.24 741.341C975.96 706.589 1018.68 664.862 1061.64 612.433C1084.08 585.016 1105.56 557.118 1131.6 532.948C1181.04 487.013 1250.16 469.456 1315.2 483.646C1327.92 486.411 1340.52 490.38 1352.64 495.43C1389.36 510.582 1421.52 534.872 1455.96 554.834C1463.88 559.403 1471.92 563.732 1480.2 567.821C1519.8 586.94 1564.08 596.2 1607.52 591.51C1659.96 585.858 1710.6 557.118 1735.56 515.632" stroke="#17C5D8" stroke-miterlimit="10"/>
<path d="M486.601 1082.01C529.681 1025.13 599.041 998.195 667.081 962.361C674.881 958.272 682.681 954.064 690.361 949.614C749.881 915.704 802.561 871.452 847.441 831.529C868.441 812.77 887.641 794.853 905.521 777.537C919.561 763.948 933.241 749.879 947.521 735.209C984.841 696.729 1025.04 652.356 1067.04 600.529C1089 573.232 1110.84 546.055 1137.12 522.607C1186.32 478.475 1254.48 460.558 1318.2 474.146C1330.8 476.791 1343.16 480.519 1355.16 485.449C1391.28 500.24 1422.84 524.41 1456.68 544.252C1464.48 548.821 1472.28 553.15 1480.44 557.118C1519.32 575.998 1562.88 584.896 1605.72 580.447C1657.32 575.156 1707.24 548.1 1734 508.297" stroke="#17CCDF" stroke-miterlimit="10"/>
<path d="M503.16 1081.89C549.12 1027.06 620.16 1004.09 688.32 969.696C696.12 965.728 703.92 961.639 711.6 957.31C770.76 924.121 821.64 878.426 864.36 835.136C884.4 814.814 902.52 795.093 919.44 775.853C932.64 760.822 945.6 745.189 958.92 729.196C993.96 687.109 1031.52 639.971 1072.68 588.624C1094.28 561.447 1116.36 534.992 1142.88 512.145C1191.96 469.937 1258.92 451.659 1321.56 464.406C1333.92 466.931 1346.16 470.538 1357.92 475.348C1393.56 489.899 1424.4 513.828 1457.52 533.429C1465.08 537.999 1472.88 542.207 1480.8 546.176C1519.08 564.814 1561.92 573.352 1604.04 569.143C1654.8 564.093 1704 538.84 1732.56 500.601" stroke="#17D3E5" stroke-miterlimit="10"/>
<path d="M519.721 1081.77C568.441 1029.1 641.401 1010.1 709.561 977.152C717.361 973.424 725.161 969.456 732.721 965.247C791.521 932.78 840.481 885.521 881.041 839.105C900.121 817.34 917.161 795.574 933.121 774.531C945.481 758.056 957.601 740.861 970.081 723.424C1002.84 677.609 1037.76 627.946 1077.96 577.08C1099.2 550.144 1121.64 524.17 1148.28 502.044C1197.12 461.52 1263 443.122 1324.44 455.147C1336.68 457.552 1348.68 461.039 1360.32 465.729C1395.36 479.918 1425.6 503.728 1458.12 523.208C1465.56 527.657 1473.24 531.986 1481.04 535.834C1518.6 554.353 1560.72 562.41 1602.24 558.441C1652.16 553.752 1700.64 530.183 1731 493.506" stroke="#18DAEC" stroke-miterlimit="10"/>
<path d="M536.28 1081.65C587.88 1031.02 662.64 1015.99 730.8 984.607C738.6 981 746.28 977.152 753.84 973.063C812.28 941.317 859.32 892.616 897.84 842.832C915.84 819.504 932.04 795.815 946.8 772.967C958.44 754.93 969.72 736.411 981.24 717.532C1011.6 668.109 1044 615.68 1083.24 565.416C1104.12 538.6 1126.8 513.347 1153.68 491.943C1202.4 453.222 1267.08 434.463 1327.44 445.767C1339.44 448.052 1351.2 451.419 1362.72 455.988C1397.28 469.817 1426.8 493.506 1458.72 512.866C1466.04 517.316 1473.48 521.524 1481.16 525.252C1518 543.53 1559.52 551.226 1600.32 547.498C1649.4 543.049 1697.28 521.284 1729.32 486.291" stroke="#18E0F2" stroke-miterlimit="10"/>
<path d="M552.84 1081.53C607.2 1032.95 683.88 1021.88 752.04 991.942C759.84 988.455 767.52 984.848 775.08 980.759C833.16 949.855 878.28 899.59 914.64 846.56C931.68 821.668 946.8 796.175 960.6 771.404C971.4 751.923 981.84 731.841 992.64 711.519C1020.84 658.369 1050.6 603.294 1088.88 553.631C1109.4 526.936 1132.32 502.405 1159.44 481.601C1207.92 444.685 1271.52 425.685 1330.68 436.267C1342.56 438.311 1354.08 441.678 1365.48 446.128C1399.44 459.716 1428.36 483.164 1459.56 502.284C1466.76 506.733 1474.08 510.822 1481.64 514.55C1517.76 532.587 1558.68 539.922 1598.76 536.555C1647 532.467 1694.16 512.385 1728 478.956" stroke="#19E7F9" stroke-miterlimit="10"/>
<path d="M569.4 1081.41C633.24 1029.58 723.48 1026.69 796.2 988.696C880.92 944.323 934.56 853.414 974.28 769.841C1024.44 664.622 1067.04 542.568 1164.96 471.26C1222.92 429.052 1301.28 409.812 1368 436.147C1409.16 452.381 1442.4 484.006 1481.88 503.848C1559.88 543.049 1661.16 529.701 1726.44 471.621" stroke="#19EEFF" stroke-miterlimit="10"/>
</g>
<mask id="mask5_81_1356" style="mask-type:luminance" maskUnits="userSpaceOnUse" x="0" y="0" width="1440" height="962">
<path d="M1440 0H0V962H1440V0Z" fill="white"/>
</mask>
<g mask="url(#mask5_81_1356)">
<path d="M-71.4004 749.157C19.5596 787.878 137.52 737.974 173.52 645.862C193.8 593.914 189.72 536.074 183.96 480.639C175.8 402.236 162.48 290.764 232.44 234.367C259.92 212.241 297.12 202.741 331.8 209.114C384.24 218.734 424.68 260.822 474.48 279.461C529.92 300.264 585.36 293.049 628.92 253.727C670.44 216.329 703.2 170.274 745.68 133.958C818.4 71.789 918.36 43.6505 1012.92 56.0362C1122.36 70.4662 1224.6 121.933 1337.4 113.035C1381.08 109.668 1422.6 94.5162 1456.8 66.7385C1518.6 16.5942 1566 -48.3408 1610.28 -114.238" stroke="#F2F2F2" stroke-miterlimit="10"/>
<path d="M-72.1201 735.088C-6.84012 759.86 73.1999 739.177 126.36 692.039C145.32 675.083 160.92 654.761 170.88 631.673C180.84 608.826 185.76 584.776 187.92 560.245C190.44 531.745 189.12 502.765 187.32 474.146C186.24 455.266 184.68 434.223 184.2 412.457C182.64 347.282 189.12 275.012 240.36 232.563C267.24 210.197 303.48 200.096 337.56 205.267C389.04 213.083 429.72 252.525 479.4 270.322C508.8 280.904 538.2 284.03 565.68 279.1C589.68 274.771 612.48 264.309 632.76 247.354C674.28 212.602 707.52 169.913 750 136.484C822.6 79.004 921.24 53.7515 1015.2 65.2955C1020.48 65.8968 1025.64 66.6183 1030.92 67.46C1128.6 82.371 1221.12 120.971 1320.48 115.32C1325.52 115.079 1330.56 114.598 1335.6 114.117C1378.44 109.668 1419.12 94.0353 1452.72 66.2575C1513.56 16.1133 1560.36 -48.461 1604.04 -113.877" stroke="#E8F2F3" stroke-miterlimit="10"/>
<path d="M-72.96 721.019C-9.35996 742.063 69.12 720.297 122.52 675.083C141.6 658.85 157.44 639.489 168 617.484C178.44 595.839 184.32 572.991 187.32 549.783C190.92 522.727 190.92 495.069 190.44 467.652C190.2 449.494 189.6 429.172 189.84 408.008C190.68 344.636 198 273.328 248.04 230.519C274.32 208.032 309.6 197.09 343.08 201.058C393.72 207.07 434.52 243.867 483.96 260.822C513.12 270.923 542.16 274.05 569.64 269.721C593.52 265.873 616.08 256.253 636.36 240.62C677.88 208.513 711.6 169.312 753.96 138.528C826.44 85.8584 923.88 63.3717 1017 74.0739C1022.16 74.6752 1027.44 75.3967 1032.6 76.1182C1129.56 89.7064 1221.24 124.338 1318.56 116.282C1323.48 115.921 1328.4 115.32 1333.44 114.718C1375.44 109.307 1415.28 93.0734 1448.28 65.2957C1508.04 15.0312 1554.24 -49.0621 1597.44 -113.997" stroke="#DDF2F3" stroke-miterlimit="10"/>
<path d="M-73.8008 706.829C-11.8808 724.025 65.0392 701.178 118.799 657.888C137.999 642.375 154.079 623.977 165.239 603.174C176.279 582.611 182.879 561.207 186.959 539.201C191.639 513.588 192.959 487.373 193.799 461.038C194.399 443.602 194.759 424.122 195.839 403.559C199.079 341.991 207.119 271.765 255.959 228.595C281.639 205.868 315.959 194.204 348.839 196.97C398.639 201.178 439.559 235.45 488.759 251.443C517.679 260.943 546.479 264.189 573.719 260.341C597.359 256.974 619.799 248.196 640.079 233.886C681.719 204.305 715.799 168.591 758.159 140.693C830.399 92.833 926.639 73.112 1019.16 82.9725C1024.32 83.5738 1029.48 84.175 1034.64 84.7763C1130.76 97.162 1221.6 127.706 1317 117.244C1321.8 116.643 1326.72 116.041 1331.52 115.32C1372.68 108.826 1411.68 92.1115 1444.08 64.3338C1502.76 14.0693 1548.36 -49.6632 1591.08 -114.117" stroke="#D3F1F4" stroke-miterlimit="10"/>
<path d="M-74.6406 692.76C-14.4006 706.228 60.9594 682.298 115.079 640.812C134.399 626.021 150.839 608.585 162.479 588.984C174.119 569.624 181.439 549.422 186.479 528.619C192.359 504.449 194.879 479.557 197.039 454.425C198.479 437.71 199.919 418.951 201.719 398.989C207.359 339.225 216.119 269.961 263.879 226.551C288.959 203.703 322.319 191.318 354.599 192.761C403.439 195.166 444.599 226.671 493.559 241.943C522.239 250.841 550.799 254.088 577.799 250.841C601.319 247.955 623.519 240.139 643.679 227.032C685.319 200.096 719.879 167.749 762.119 142.737C834.239 99.6871 929.159 82.7318 1020.96 91.7506C1026.12 92.2316 1031.16 92.8328 1036.32 93.4341C1131.6 104.617 1221.6 131.193 1315.08 118.206C1319.88 117.484 1324.56 116.763 1329.36 115.921C1369.68 108.465 1407.72 91.1493 1439.64 63.2513C1497.24 12.8666 1542.24 -50.3849 1584.48 -114.358" stroke="#C9F1F4" stroke-miterlimit="10"/>
<path d="M-75.3604 678.691C-16.6804 688.431 56.9997 663.419 111.48 623.857C130.92 609.667 147.6 593.313 159.84 574.915C171.96 556.757 180.24 537.758 186.12 518.277C193.08 495.67 196.92 472.101 200.52 448.051C202.92 432.058 205.08 414.021 207.72 394.66C215.52 336.58 225.36 268.398 271.92 224.627C296.4 201.539 328.68 188.432 360.48 188.792C408.48 189.273 449.76 218.374 498.48 232.684C526.92 241.101 555.24 244.348 582 241.702C605.28 239.418 627.36 232.323 647.52 220.538C689.28 196.248 724.2 167.508 766.44 145.142C838.44 107.022 932.16 92.7126 1023.24 100.89C1028.28 101.371 1033.32 101.852 1038.48 102.333C1132.92 112.313 1222.08 134.8 1313.64 119.288C1318.32 118.446 1323 117.604 1327.56 116.642C1367.04 108.225 1404.24 90.3076 1435.56 62.4096C1492.2 12.0248 1536.48 -50.8659 1578.24 -114.358" stroke="#BEF1F5" stroke-miterlimit="10"/>
<path d="M-76.2002 664.502C-19.2002 670.514 52.9198 644.3 107.76 606.661C127.32 593.193 144.24 577.801 157.2 560.606C169.92 543.65 178.92 525.974 185.88 507.696C193.92 486.532 199.08 464.285 204 441.438C207.24 426.166 210.48 408.97 213.84 390.211C224.04 333.934 234.6 266.715 279.96 222.703C303.84 199.375 335.16 185.546 366.36 184.704C413.52 183.381 455.04 209.836 503.4 223.304C531.6 231.121 559.68 234.488 586.2 232.323C609.36 230.519 631.2 224.266 651.36 213.805C693.12 192.16 728.52 166.787 770.64 147.186C842.52 113.877 934.92 102.333 1025.4 109.668C1030.44 110.029 1035.48 110.51 1040.4 110.991C1134.12 119.649 1222.44 138.167 1311.96 120.25C1316.52 119.288 1321.08 118.326 1325.64 117.124C1364.28 107.624 1400.64 89.2256 1431.36 61.3276C1486.92 10.8226 1530.6 -51.5871 1571.88 -114.598" stroke="#B4F1F6" stroke-miterlimit="10"/>
<path d="M-77.04 650.432C-21.72 652.717 48.84 625.42 104.04 589.586C123.72 576.839 140.88 562.409 154.44 546.416C167.76 530.543 177.6 514.189 185.4 497.113C194.52 477.392 201 456.469 207.24 434.824C211.44 420.273 215.52 403.799 219.6 385.642C232.2 331.168 243.6 264.91 287.76 220.658C311.04 197.21 341.4 182.659 372 180.495C418.2 177.368 459.96 201.178 508.08 213.804C536.04 221.14 563.88 224.507 590.16 222.823C613.08 221.5 634.92 216.089 654.96 206.95C696.84 187.83 732.6 166.065 774.72 149.23C846.48 120.731 937.56 112.073 1027.32 118.446C1032.24 118.807 1037.28 119.167 1042.2 119.648C1135.08 127.104 1222.56 141.774 1310.16 121.212C1314.6 120.129 1319.04 119.047 1323.6 117.725C1361.4 107.263 1396.92 88.2633 1427.04 60.3653C1481.52 9.86026 1524.6 -52.1888 1565.4 -114.719" stroke="#AAF1F6" stroke-miterlimit="10"/>
<path d="M-77.7607 636.363C-24.1207 634.92 44.8793 606.421 100.439 572.63C120.239 560.485 137.759 547.137 151.799 532.347C165.599 517.676 176.279 502.525 185.039 486.772C195.359 468.494 203.039 449.013 210.599 428.451C215.639 414.622 220.679 398.869 225.599 381.433C240.599 328.763 252.719 263.468 295.679 218.975C318.359 195.286 347.759 180.014 377.759 176.767C423.119 171.837 464.999 193.121 512.879 204.786C540.479 211.52 568.199 214.887 594.359 213.925C617.159 213.083 638.759 208.634 658.799 200.697C700.799 184.223 736.919 165.825 778.919 151.876C850.439 128.186 940.439 122.294 1029.48 127.826C1034.4 128.186 1039.32 128.427 1044.24 128.788C1136.28 135.041 1223.04 145.743 1308.72 122.655C1313.04 121.452 1317.48 120.25 1321.8 118.807C1358.76 107.383 1393.32 87.7824 1422.96 59.7641C1476.36 9.13886 1518.84 -52.4292 1559.16 -114.358" stroke="#9FF0F7" stroke-miterlimit="10"/>
<path d="M-78.6006 622.294C-26.6406 617.123 40.7994 587.541 96.7194 555.555C116.639 544.131 134.399 531.745 149.039 518.157C163.439 504.689 174.839 490.86 184.559 476.31C195.959 459.355 204.959 441.317 213.839 422.077C219.839 408.97 225.719 393.939 231.479 377.104C248.759 326.238 261.839 261.904 303.599 217.051C325.679 193.242 353.999 177.128 383.519 172.679C428.039 165.945 470.039 184.584 517.679 195.406C545.039 201.659 572.519 205.026 598.439 204.545C620.999 204.184 642.479 200.577 662.519 193.963C704.519 180.134 741.119 165.223 783.119 154.04C854.519 135.041 943.199 132.034 1031.52 136.724C1036.44 136.965 1041.24 137.205 1046.16 137.566C1137.36 142.616 1223.28 149.23 1307.04 123.737C1311.36 122.414 1315.56 121.092 1319.88 119.528C1356 107.022 1389.72 86.9406 1418.64 58.9223C1471.08 8.29708 1512.84 -52.9102 1552.68 -114.358" stroke="#95F0F8" stroke-miterlimit="10"/>
<path d="M-79.4404 608.104C-29.1604 599.206 36.7196 568.542 92.9996 538.48C112.92 527.777 131.04 516.354 146.28 503.848C161.28 491.582 173.52 478.956 184.2 465.608C196.68 450.096 207.12 433.381 217.2 415.344C224.16 402.958 230.88 388.768 237.36 372.414C257.04 323.352 270.84 259.981 311.52 214.887C333 190.837 360.36 174.122 389.28 168.35C432.84 159.812 475.08 175.806 522.48 185.786C549.6 191.438 576.84 194.925 602.52 195.046C624.96 195.166 646.32 192.4 666.24 187.109C708.36 175.926 745.2 164.382 787.2 156.085C858.36 141.895 945.84 141.655 1033.56 145.503C1038.36 145.743 1043.28 145.984 1048.08 146.104C1138.56 149.832 1223.64 152.477 1305.36 124.579C1309.56 123.136 1313.76 121.573 1317.84 120.01C1353.12 106.542 1386 85.8586 1414.32 57.8403C1465.68 7.09485 1506.84 -53.6314 1546.2 -114.598" stroke="#8BF0F8" stroke-miterlimit="10"/>
<path d="M-80.2803 594.035C-31.6803 581.409 32.6397 549.542 89.2797 521.404C109.32 511.303 127.8 500.961 143.52 489.658C159 478.475 172.08 467.171 183.72 455.146C197.28 441.077 209.04 425.805 220.44 408.85C228.24 397.186 235.92 383.718 243.24 368.085C265.32 320.707 279.96 258.417 319.32 213.083C340.2 188.913 366.6 171.356 394.92 164.382C437.64 153.92 480 167.508 527.16 176.527C554.04 181.698 581.04 185.065 606.48 185.786C628.68 186.387 649.92 184.584 669.72 180.615C711.96 172.198 749.16 163.901 791.16 158.369C862.2 148.99 948.48 151.515 1035.36 154.521C1040.16 154.641 1044.96 154.882 1049.76 155.002C1139.4 157.527 1223.64 156.205 1303.44 125.781C1307.52 124.218 1311.6 122.535 1315.68 120.851C1350.12 106.301 1382.16 85.137 1409.88 57.1187C1460.16 6.37322 1500.72 -53.9923 1539.6 -114.478" stroke="#80F0F9" stroke-miterlimit="10"/>
<path d="M-81 579.966C-33.96 563.612 28.68 530.663 85.56 504.328C105.72 494.949 124.44 485.569 140.76 475.468C156.84 465.487 170.64 455.507 183.24 444.684C197.88 432.058 211.08 418.109 223.68 402.356C232.44 391.413 240.96 378.667 249.12 363.636C273.6 318.061 288.96 256.733 327.24 211.038C347.52 186.628 372.96 168.47 400.68 160.293C442.56 148.027 485.04 158.97 531.96 167.147C558.6 171.837 585.36 175.204 610.56 176.407C632.64 177.489 653.64 176.527 673.44 173.881C715.8 168.109 753.36 163.299 795.24 160.533C866.04 155.964 951.12 161.255 1037.4 163.42C1042.2 163.54 1046.88 163.66 1051.68 163.66C1140.48 164.983 1223.88 159.571 1301.76 126.743C1305.72 125.06 1309.68 123.256 1313.64 121.452C1347.24 105.94 1378.44 84.1747 1405.56 56.0362C1454.76 5.1705 1494.84 -54.714 1533.12 -114.719" stroke="#76F0F9" stroke-miterlimit="10"/>
<path d="M-81.8398 565.776C-36.4798 545.695 24.6002 511.544 81.8402 487.253C102.12 478.595 121.08 470.178 138 461.279C154.68 452.501 169.32 443.723 182.88 434.103C198.72 422.919 213.12 410.293 227.04 395.743C236.76 385.522 246.12 373.497 255 359.187C281.88 315.416 298.08 255.05 335.16 209.115C354.84 184.464 379.32 165.584 406.44 156.205C447.36 142.136 490.08 150.553 536.88 157.768C563.28 161.857 589.8 165.344 614.76 167.148C636.6 168.711 657.6 168.711 677.28 167.268C719.76 164.141 757.68 163.059 799.56 162.819C870.24 162.458 954 171.116 1039.56 172.439C1044.24 172.559 1049.04 172.559 1053.72 172.559C1141.8 172.679 1224.36 163.179 1300.2 127.946C1304.04 126.142 1308 124.218 1311.84 122.294C1344.48 105.82 1374.84 83.4536 1401.48 55.3151C1449.72 4.32909 1489.08 -55.0744 1526.88 -114.598" stroke="#6CF0FA" stroke-miterlimit="10"/>
<path d="M-82.6807 551.707C-39.0007 527.777 20.5193 492.664 78.1193 470.178C98.5193 462.121 117.839 454.786 135.239 447.09C152.399 439.514 167.879 431.938 182.399 423.641C199.319 413.901 215.159 402.717 230.399 389.249C241.079 379.87 251.399 368.566 260.999 354.738C290.279 312.77 307.199 253.367 343.079 207.191C362.159 182.419 385.559 162.698 412.199 152.116C452.279 136.243 495.119 142.015 541.679 148.389C567.839 151.996 594.119 155.483 618.959 157.768C640.679 159.812 661.439 160.173 681.119 160.534C723.719 161.255 761.999 161.977 803.879 164.983C874.319 169.913 956.999 180.976 1041.84 181.337C1046.52 181.337 1051.2 181.337 1055.88 181.337C1143.12 180.255 1224.84 166.667 1298.76 129.028C1302.6 127.104 1306.32 125.06 1310.16 123.016C1341.96 105.459 1371.48 82.6118 1397.52 54.4733C1444.68 3.48734 1483.44 -55.5554 1520.76 -114.598" stroke="#61EFFB" stroke-miterlimit="10"/>
<path d="M-83.5205 537.637C-41.5205 509.98 16.4395 473.785 74.3995 453.102C94.9195 445.767 114.48 439.393 132.48 432.9C150.24 426.406 166.559 420.273 181.919 413.179C199.919 405.002 217.199 395.141 233.639 382.756C245.279 374.098 256.439 363.516 266.759 350.288C298.439 310.125 316.2 251.683 350.88 205.267C369.36 180.255 391.799 159.932 417.839 148.148C457.079 130.471 500.039 133.718 546.359 139.129C572.279 142.135 598.319 145.622 622.919 148.508C644.399 151.034 665.159 152.837 684.719 153.92C727.439 156.325 766.079 161.495 807.839 167.147C878.159 176.767 959.519 190.716 1043.64 190.235C1048.2 190.235 1052.88 190.115 1057.56 189.995C1143.96 187.59 1224.84 170.033 1296.84 129.99C1300.56 127.946 1304.28 125.781 1307.88 123.617C1338.84 105.098 1367.52 81.6495 1392.96 53.511C1439.04 2.40474 1477.2 -56.157 1514.04 -114.719" stroke="#57EFFB" stroke-miterlimit="10"/>
<path d="M-84.2402 523.448C-43.9202 492.063 12.4798 454.665 70.7998 436.026C91.4398 429.413 111.24 424.001 129.84 418.71C148.2 413.419 165.24 408.489 181.68 402.597C200.88 395.863 219.48 387.325 237.12 376.142C249.6 368.205 261.72 358.345 272.88 345.839C306.96 307.479 325.44 250 359.04 203.222C376.92 178.09 398.4 156.926 423.84 143.939C462.12 124.459 505.32 125.06 551.4 129.629C577.08 132.155 602.88 135.642 627.24 139.129C648.6 142.135 669.12 144.901 688.68 147.186C731.52 152.236 770.52 160.774 812.28 169.312C882.48 183.742 962.52 200.457 1046.04 199.134C1050.6 199.014 1055.16 198.893 1059.84 198.773C1145.4 195.166 1225.56 173.641 1295.52 131.072C1299.12 128.908 1302.72 126.623 1306.32 124.338C1336.44 104.738 1364.28 80.6876 1389.12 52.5491C1434.12 1.44288 1471.68 -56.7581 1508.04 -114.839" stroke="#4DEFFC" stroke-miterlimit="10"/>
<path d="M-85.0801 509.379C-46.4401 474.266 8.39991 435.786 67.0799 418.951C87.8399 412.938 108 408.609 127.08 404.521C145.92 400.432 163.92 396.705 181.2 392.135C201.48 386.844 221.4 379.749 240.36 369.769C253.8 362.554 266.76 353.535 278.76 341.51C315.24 304.954 334.56 248.436 366.84 201.419C384.12 176.046 404.64 154.16 429.48 139.971C466.92 118.687 510.24 116.763 556.08 120.37C581.52 122.414 607.08 125.902 631.2 129.87C652.32 133.357 672.72 136.965 692.28 140.572C735.24 148.388 774.48 160.173 816.24 171.597C886.2 190.716 965.16 210.317 1047.96 208.153C1052.52 208.032 1057.08 207.912 1061.64 207.551C1146.48 202.741 1225.56 177.008 1293.72 132.155C1297.2 129.87 1300.68 127.465 1304.16 125.06C1333.44 104.497 1360.44 79.8459 1384.56 51.7074C1428.6 0.480883 1465.44 -57.2391 1501.32 -114.839" stroke="#42EFFD" stroke-miterlimit="10"/>
<path d="M-85.9199 495.309C-48.9599 456.469 4.32007 416.786 63.3601 401.875C84.1201 396.584 104.64 393.217 124.32 390.331C143.76 387.445 162.48 385.04 180.72 381.673C202.08 377.825 223.44 372.173 243.6 363.275C258 356.902 271.92 348.484 284.52 337.181C323.4 302.549 343.44 246.993 374.64 199.615C391.32 174.122 410.88 151.515 435.12 136.002C471.72 112.794 515.28 108.465 560.76 111.111C585.96 112.554 611.28 116.041 635.16 120.731C656.16 124.819 676.44 129.268 695.88 134.078C738.84 144.66 778.68 159.692 820.32 174.002C890.16 197.811 967.8 220.298 1049.88 217.292C1054.32 217.171 1058.88 216.931 1063.32 216.57C1147.32 210.557 1225.56 180.735 1291.8 133.477C1295.28 131.072 1298.64 128.547 1302 125.902C1330.44 104.377 1356.48 79.1243 1380.12 50.9858C1423.08 -0.240746 1459.32 -57.6 1494.84 -114.719" stroke="#38EFFD" stroke-miterlimit="10"/>
<path d="M-86.6406 481.24C-51.2406 438.672 0.359378 397.907 59.7594 384.92C80.6394 380.351 101.399 377.946 121.679 376.142C141.719 374.338 161.279 373.256 180.479 371.091C202.919 368.686 225.599 364.478 247.079 356.661C262.439 351.01 277.199 343.314 290.639 332.611C331.919 299.783 352.799 245.19 382.679 197.45C398.879 171.717 417.239 148.388 440.999 131.794C476.639 106.782 520.439 99.9276 565.679 101.611C590.519 102.573 615.599 106.06 639.359 111.231C660.119 115.801 680.279 121.212 699.599 127.224C742.679 140.692 782.879 158.85 824.399 176.046C894.119 204.545 970.559 229.918 1051.92 226.07C1056.36 225.829 1060.8 225.589 1065.24 225.228C1148.4 217.893 1225.92 184.103 1290.12 134.439C1293.48 131.794 1296.72 129.269 1299.96 126.503C1327.56 103.896 1352.76 78.1624 1375.8 50.0239C1417.68 -1.32287 1453.32 -58.2011 1488.36 -114.839" stroke="#2EEEFE" stroke-miterlimit="10"/>
<path d="M-87.4805 467.051C-53.7605 420.755 -3.72046 378.908 56.0395 367.724C77.0395 363.756 98.1595 362.433 118.92 361.832C139.44 361.231 159.84 361.351 180 360.509C203.64 359.547 227.64 356.782 250.32 350.048C266.64 345.238 282.24 338.263 296.4 328.042C340.08 297.017 361.68 243.386 390.48 195.406C406.08 169.432 423.48 145.382 446.64 127.585C481.44 100.769 525.359 91.2697 570.359 92.1114C594.959 92.5924 619.8 96.0797 643.32 101.731C663.96 106.782 683.88 113.155 703.2 120.37C746.4 136.604 786.84 158.008 828.48 177.97C898.08 211.279 973.2 239.418 1053.84 234.728C1058.28 234.487 1062.6 234.127 1067.04 233.646C1149.48 225.108 1226.04 187.349 1288.32 135.041C1291.56 132.275 1294.8 129.509 1297.92 126.743C1324.68 103.174 1349.04 76.8397 1371.48 48.7012C1412.28 -2.64558 1447.32 -59.1631 1481.88 -115.32" stroke="#23EEFE" stroke-miterlimit="10"/>
<path d="M-88.3203 452.982C-56.2803 402.958 -7.80028 359.908 52.3197 350.769C94.3197 344.276 137.04 349.446 179.52 350.168C222 350.889 266.4 346.56 302.28 323.833C373.32 278.74 388.08 177.97 452.4 123.737C504.72 79.4852 581.4 74.7955 647.52 92.5925C713.64 110.389 772.68 147.426 832.68 180.495C905.88 220.659 984 252.886 1069.08 242.785C1150.68 233.044 1226.4 191.197 1286.76 136.484C1364.64 65.897 1420.68 -25.2525 1475.52 -114.959" stroke="#19EEFF" stroke-miterlimit="10"/>
</g>
</g>
<defs>
<clipPath id="clip0_81_1356">
<rect width="1440" height="962" fill="white"/>
</clipPath>
</defs>
</svg>
