<svg width="100" height="100" viewBox="0 0 100 100" fill="none" xmlns="http://www.w3.org/2000/svg">
<path d="M32.2409 71.0531L31.9377 70.8468C29.5944 69.2485 26.3971 69.8501 24.7971 72.1899L11.756 91.253C10.1555 93.5927 10.7579 96.7849 13.1016 98.3821L13.4043 98.589C15.748 100.187 18.9454 99.5856 20.5454 97.246L33.5866 78.1828C35.187 75.8431 34.5846 72.6514 32.2409 71.0531Z" fill="black"/>
<path d="M44.7204 71.0531L44.4177 70.8468C42.074 69.2485 38.8766 69.8501 37.2761 72.1899L24.2354 91.253C22.635 93.5927 23.2374 96.7849 25.5806 98.3821L25.8843 98.589C28.2275 100.187 31.4249 99.5856 33.0249 97.246L46.0656 78.1828C47.6666 75.8431 47.0641 72.6514 44.7204 71.0531Z" fill="#736F6B"/>
<path d="M87.4109 91.2317L74.3956 72.2663C72.7986 69.9385 69.6075 69.3404 67.2688 70.9295L66.9659 71.1353C64.6272 72.7252 64.0261 75.9006 65.6233 78.228L78.6385 97.1934C80.2359 99.5214 83.4267 100.12 85.7654 98.53L86.0683 98.3249C88.4071 96.7348 89.0082 93.5596 87.4109 91.2317Z" fill="black"/>
<path d="M74.9563 91.2317L61.9411 72.2663C60.3437 69.9385 57.1529 69.3404 54.8136 70.9295L54.5113 71.1353C52.172 72.7252 51.571 75.9006 53.1683 78.228L66.1835 97.1934C67.7808 99.5214 70.9715 100.12 73.3108 98.53L73.6131 98.3249C75.9525 96.7348 76.5536 93.5596 74.9563 91.2317Z" fill="#736F6B"/>
<path d="M69.5555 35.6141L56.3915 33.084L49.9193 21.3381L43.4467 33.084L30.2832 35.6141L39.4467 45.4042L37.7829 58.7138L49.9193 53.0178L62.0553 58.7138L60.3915 45.4042L69.5555 35.6141Z" fill="black"/>
<path d="M78.4788 42.4313C78.3363 58.1145 65.6023 70.8486 49.919 70.9912C42.4634 71.0589 35.2632 67.9835 29.934 62.8341C24.3681 57.4558 21.4297 50.0586 21.3602 42.4314C21.2941 35.1707 10.0288 35.1643 10.095 42.4314C10.2937 64.2573 28.0931 82.0579 49.919 82.2563C71.7471 82.4548 89.5482 63.958 89.744 42.4314C89.81 35.1642 78.5449 35.1706 78.4788 42.4313Z" fill="black"/>
<path d="M21.3602 40.5663C21.5029 24.8833 34.2356 12.1491 49.919 12.0062C57.3748 11.9383 64.5752 15.0141 69.9041 20.1635C75.4702 25.542 78.4093 32.9391 78.4788 40.5662C78.5449 47.8269 89.81 47.8334 89.7439 40.5662C89.5455 18.7407 71.7448 0.939819 49.919 0.741089C28.0911 0.542358 10.2908 19.0399 10.095 40.5663C10.0288 47.8334 21.2941 47.827 21.3602 40.5663Z" fill="#736F6B"/>
</svg>
