<svg width="120" height="120" viewBox="0 0 120 120" fill="none" xmlns="http://www.w3.org/2000/svg">
<g id="idea-innovation-light-svgrepo-com 1">
<g id="_x37_15_x2C__idea_x2C__innovation_x2C__light_x2C__solution_x2C__startup">
<g id="Group">
<path id="Vector" fill-rule="evenodd" clip-rule="evenodd" d="M76.2494 95.1094H65.7246H65.7028H54.295H54.2765H43.7484V100.352H76.2494V95.1094ZM76.2494 101.887H43.7484V107.129H50.891H50.9128H69.0883H69.1068H76.2494V101.887ZM68.3205 108.664H51.6801V113.906H68.3205V108.664ZM75.0883 35.0006C75.4476 34.3952 75.7781 33.8023 76.0776 33.2217C78.1434 29.2404 78.7675 26.1199 77.4602 24.8159C76.1529 23.5052 73.0324 24.1296 69.0539 26.1949C68.4768 26.4947 67.8808 26.8315 67.2754 27.1873C67.7402 29.2219 68.1178 31.4808 68.3803 33.896C69.5376 34.0205 70.664 34.1766 71.7438 34.3514C72.9107 34.5387 74.0278 34.7571 75.0883 35.0006ZM50.947 58.3526C51.5243 58.0533 52.117 57.7226 52.7257 57.3607C52.2576 55.3259 51.8831 53.0733 51.6211 50.658C50.7068 50.5582 49.8175 50.4396 48.9564 50.3086C47.5336 50.0965 46.1824 49.8405 44.9125 49.5473C44.5539 50.1588 44.2228 50.752 43.9235 51.326C41.8577 55.3071 41.2338 58.4276 42.5379 59.7384C43.8485 61.042 46.9687 60.4184 50.947 58.3526ZM52.8911 36.9223C53.1782 36.623 53.4686 36.33 53.7618 36.0366C54.055 35.7429 54.3515 35.4497 54.645 35.1687C54.0954 35.2062 53.5558 35.2437 53.0224 35.2938C52.972 35.8305 52.9284 36.3734 52.8911 36.9223ZM66.2395 48.5109C65.943 48.8102 65.6496 49.0976 65.3564 49.3847C65.9022 49.3474 66.4453 49.3036 66.9789 49.2539C67.0286 48.7172 67.0727 48.1805 67.1102 47.6313C66.8231 47.9248 66.5327 48.218 66.2395 48.5109ZM58.7915 31.4184C57.1849 30.139 55.612 29.0098 54.1019 28.0362C53.9896 28.5663 53.8802 29.1096 53.7775 29.6648C53.5401 30.9565 53.3402 32.3168 53.1782 33.7462C54.2205 33.6525 55.2907 33.5838 56.3796 33.5339C57.1846 32.7975 57.9895 32.0925 58.7915 31.4184ZM61.241 33.4652C60.8259 33.1034 60.4106 32.7473 59.999 32.4042C59.5875 32.7476 59.1752 33.1034 58.7604 33.4652C59.1691 33.4591 59.5842 33.4528 59.999 33.4528C60.4171 33.4528 60.8289 33.4591 61.241 33.4652ZM69.8714 42.2768C69.528 41.865 69.1727 41.4469 68.8136 41.0351C68.8197 41.4469 68.823 41.8589 68.823 42.2768C68.823 42.6888 68.8197 43.1072 68.8136 43.5127C69.1727 43.1006 69.528 42.6888 69.8714 42.2768ZM74.2338 48.1744C73.2663 46.6643 72.1338 45.0916 70.8576 43.4876C70.1836 44.2863 69.4781 45.0916 68.7421 45.8963C68.692 46.9884 68.6233 48.0555 68.5326 49.0976C70.5707 48.867 72.4832 48.5548 74.2338 48.1744ZM67.2721 57.3605C67.8808 57.7223 68.4736 58.053 69.0539 58.3523C73.0326 60.4181 76.1529 61.042 77.4602 59.738C78.7673 58.4271 78.1434 55.3069 76.0776 51.3255C75.7783 50.7516 75.4476 50.1586 75.0883 49.553C73.0511 50.0149 70.7953 50.389 68.3803 50.6576C68.1586 52.6671 67.8621 54.5641 67.5002 56.3177C67.428 56.6742 67.3502 57.0171 67.2721 57.3605ZM61.2096 53.1295C62.8164 54.4085 64.3891 55.5382 65.8961 56.5118L66.0021 56.0126C66.3361 54.3963 66.611 52.6554 66.8231 50.8078C65.7775 50.8955 64.7102 50.9702 63.6213 51.0202C62.8167 51.7566 62.0116 52.4552 61.2096 53.1295ZM58.7601 51.0888C59.1752 51.4507 59.5872 51.8002 59.9988 52.143C60.4104 51.8002 60.8259 51.4507 61.2407 51.0888C60.8287 51.0947 60.4169 51.0947 59.9988 51.0947C59.5839 51.0947 59.1719 51.0947 58.7601 51.0888ZM52.7693 45.2723C53.4372 45.9902 54.1298 46.7137 54.8475 47.4316C55.5651 48.143 56.283 48.8421 57.0037 49.5098C57.9862 49.5471 58.9882 49.5656 59.999 49.5656C61.0134 49.5656 62.0146 49.5471 62.9943 49.5098C63.7153 48.8419 64.4362 48.143 65.1539 47.4316C65.8718 46.7137 66.5643 45.9902 67.2321 45.2723C67.2693 44.2927 67.2878 43.2879 67.2878 42.2768C67.2878 41.2596 67.2693 40.2612 67.2321 39.2817C66.5641 38.5577 65.8715 37.8403 65.1539 37.1224C64.4362 36.4045 63.7186 35.7115 62.9976 35.0442C62.0149 35.007 61.0134 34.988 59.9993 34.988C58.9884 34.988 57.9867 35.007 57.0039 35.0442C56.283 35.7117 55.5654 36.4048 54.8477 37.1224C54.13 37.8401 53.4375 38.5577 52.7695 39.2817C52.732 40.2614 52.7132 41.2596 52.7132 42.2768C52.713 43.2879 52.7318 44.2863 52.7693 45.2723ZM50.1293 42.2768C50.4726 42.6888 50.8251 43.1006 51.187 43.5127C51.1809 43.1072 51.1779 42.6886 51.1779 42.2768C51.1779 41.8589 51.1807 41.4469 51.187 41.0351C50.8254 41.4469 50.4729 41.865 50.1293 42.2768ZM45.764 36.3795C46.7348 37.8898 47.8673 39.4624 49.1435 41.0665C49.8175 40.2673 50.5225 39.4563 51.2589 38.651C51.3086 37.5652 51.3773 36.4978 51.468 35.4558C49.4306 35.6871 47.5179 35.9988 45.764 36.3795ZM43.9232 33.2217C44.2225 33.8023 44.5537 34.3952 44.9123 35.0006C46.9469 34.5326 49.2025 34.1578 51.6211 33.896C51.7924 32.3231 52.0108 30.813 52.2733 29.3899C52.4137 28.6348 52.5632 27.8988 52.7257 27.1873C52.117 26.8254 51.5245 26.4947 50.947 26.1949C46.9687 24.1296 43.8485 23.5052 42.5379 24.8159C41.2336 26.1199 41.8575 29.2404 43.9232 33.2217ZM58.7882 53.1295C57.9895 52.4552 57.1847 51.7568 56.3793 51.0202C55.2904 50.9702 54.2203 50.9016 53.178 50.8078C53.4122 52.8485 53.7243 54.758 54.1047 56.5118C55.612 55.5382 57.1847 54.4085 58.7882 53.1295ZM68.7421 38.651C69.4783 39.4624 70.1836 40.2673 70.8576 41.0665C72.1338 39.4624 73.2663 37.8837 74.2368 36.3795C73.3631 36.1863 72.4488 36.0115 71.4972 35.8617C70.5424 35.7056 69.5531 35.5683 68.5329 35.456C68.6233 36.498 68.692 37.5652 68.7421 38.651ZM65.3533 35.1687C65.6498 35.4497 65.9432 35.7429 66.2395 36.0366C66.5327 36.33 66.8231 36.623 67.1069 36.9223C67.0694 36.3734 67.0286 35.8305 66.9789 35.2938C66.4455 35.25 65.9025 35.2062 65.3533 35.1687ZM61.2096 31.4184C62.0116 32.0925 62.8164 32.7975 63.6213 33.5339C64.7102 33.5838 65.7775 33.6525 66.8198 33.7462C66.5889 31.7055 66.277 29.7893 65.8961 28.042C64.3893 29.0095 62.8167 30.1451 61.2096 31.4184ZM51.2592 45.8963C50.5225 45.0914 49.8178 44.2863 49.1437 43.4876C47.8675 45.0916 46.735 46.6643 45.7643 48.1744C46.8438 48.405 47.9859 48.611 49.1845 48.7922C49.9239 48.9045 50.6885 49.0043 51.4682 49.0978C51.3775 48.0555 51.3061 46.9884 51.2592 45.8963ZM53.7616 48.5109C53.4684 48.218 53.178 47.9245 52.8942 47.6313C52.9317 48.1805 52.972 48.7233 53.0219 49.2539C53.5554 49.3036 54.0949 49.3472 54.6445 49.3847C54.3513 49.0976 54.0548 48.8044 53.7616 48.5109ZM57.4371 18.2447C57.2873 18.0949 57.0785 18.0073 56.8507 18.0073C56.6229 18.0073 56.414 18.0949 56.2638 18.2447C56.114 18.3945 56.0236 18.6066 56.0236 18.8311C56.0236 19.0622 56.114 19.2677 56.2638 19.4175C56.3046 19.4555 56.3454 19.493 56.3889 19.5237L56.5978 19.6237C56.6446 19.6364 56.6915 19.6486 56.7414 19.6552H56.7447H56.7571L56.7979 19.661H56.8007H56.8073H56.8195H56.8291H56.8352H56.8413H56.8507C57.0785 19.661 57.2875 19.5677 57.4371 19.4175C57.5868 19.2677 57.6806 19.0622 57.6806 18.8311V18.825V18.8126L57.6773 18.7997V18.7936V18.7875V18.7814V18.7753V18.7688V18.7563L57.6745 18.75V18.7441V18.7378V18.7312L57.6712 18.7249V18.7191V18.713V18.7069V18.7003H57.6684V18.6938V18.6877L57.6651 18.6816V18.6757C57.6337 18.5128 57.5529 18.3633 57.4371 18.2447ZM59.0004 17.8514L59.0158 17.8889L59.0219 17.9013L59.0315 17.9262L59.0376 17.9386L59.0655 18.0073L59.0688 18.0202V18.0263L59.0749 18.0387L59.081 18.0511L59.1032 18.1256L59.1061 18.1324L59.1093 18.1383L59.1185 18.1697L59.1218 18.1821L59.125 18.1882V18.1941L59.1311 18.2133L59.1339 18.2257L59.1529 18.3002L59.1562 18.3131L59.159 18.3316L59.1623 18.3443L59.1654 18.3567L59.1686 18.3755L59.1714 18.3881L59.1747 18.4005V18.413V18.4195L59.178 18.432L59.1808 18.4444V18.4507L59.1841 18.4631L59.1869 18.4755L59.1902 18.4943V18.5067L59.1935 18.5257V18.5318L59.1963 18.5379V18.5564L59.1996 18.5627V18.5691V18.5873V18.5941L59.2026 18.6V18.6185L59.2059 18.6246V18.6312V18.6434V18.6497V18.6621L59.2089 18.675V18.6809V18.6933V18.7062L59.2122 18.7123V18.7245V18.7373V18.7437V18.7559V18.7683V18.7748V18.7873V18.7997V18.8184V18.8309C59.2122 19.4859 58.9469 20.0791 58.5227 20.5036C58.0954 20.928 57.5022 21.1962 56.8504 21.1962H56.8411H56.835H56.8289H56.8193H56.8099H56.8038H56.7977H56.7916H56.7883H56.7822H56.7789H56.7729H56.7668H56.7607H56.7574H56.7513H56.7419H56.7358H56.7297L56.7264 21.1901H56.7204H56.7107H56.6986H56.6889H56.6829H56.6732H56.6704H56.6671H56.6578H56.6517L56.6048 21.184H56.5957H56.5891C56.5113 21.1711 56.4332 21.1589 56.355 21.1465C55.6439 22.582 55.0101 24.3792 54.4767 26.4635C56.246 27.5745 58.1057 28.9038 59.9995 30.4263C61.8965 28.9038 63.7565 27.5745 65.5254 26.4635C65.3477 25.7773 65.1635 25.1217 64.9668 24.5039C63.6131 20.2294 61.8499 17.5833 59.9995 17.5833C59.7405 17.5833 59.4879 17.6334 59.2443 17.7333L59.0004 17.8514ZM82.7207 38.876C82.8705 38.7258 82.964 38.5202 82.964 38.2891C82.964 38.0644 82.8705 37.8523 82.7207 37.7025C82.571 37.5527 82.3622 37.4592 82.1341 37.4592C81.9063 37.4592 81.6975 37.5527 81.5472 37.7025C81.4882 37.7651 81.435 37.8337 81.3949 37.9146L81.3351 38.0644L81.3229 38.1272L81.3042 38.2891C81.3042 38.5202 81.3975 38.7258 81.5472 38.876C81.6975 39.0258 81.9063 39.1191 82.1341 39.1191H82.1437H82.1465H82.1561H82.1622H82.1655H82.1744H82.1779H82.1873H82.1964H82.2028L82.2091 39.1127H82.215H82.2185H82.2274H82.2431H82.2492L82.2712 39.1069H82.2803H82.29C82.4557 39.0755 82.6052 38.9883 82.7207 38.876ZM83.5385 40.1925C83.2514 40.4044 82.9176 40.5541 82.5522 40.617H82.5431L82.4529 40.6294L82.4371 40.6357H82.4336H82.4153H82.4057L82.3964 40.642H82.3779H82.3746H82.3591H82.3467H82.3401L82.3216 40.6479H82.3155H82.3029H82.2876H82.2841H82.2654H82.2562H82.2468L82.2279 40.6542H82.225H82.2096H82.1941H82.1906H82.1721H82.166H82.1533H82.1346C81.4825 40.6542 80.8898 40.3859 80.4618 39.9616C80.0374 39.537 79.7725 38.9445 79.7725 38.2889C79.7725 38.2015 79.7758 38.1141 79.7852 38.0269C78.6213 37.5588 77.2861 37.1283 75.8132 36.7474C74.7025 38.52 73.3732 40.3798 71.8502 42.2766C73.3732 44.1675 74.7025 46.0275 75.8132 47.7994C76.4964 47.6245 77.1515 47.4375 77.7724 47.238C82.0471 45.8897 84.6932 44.1239 84.6932 42.2763C84.6932 41.877 84.562 41.4776 84.3159 41.0906C84.1221 40.7855 83.8596 40.4855 83.5385 40.1925ZM60.9412 67.9631C61.1754 68.194 61.4934 68.3379 61.8433 68.3379C62.1958 68.3379 62.5139 68.1942 62.7447 67.9695C62.9758 67.7325 63.1162 67.4142 63.1162 67.0648C63.1162 66.7153 62.9758 66.3966 62.7482 66.1659C62.6889 66.1097 62.6264 66.0537 62.5577 66.0103L62.4984 65.9728L62.4923 65.9665H62.4862L62.4768 65.9602H62.4733L62.4644 65.9543H62.4611L62.4515 65.948L62.4487 65.9421H62.4391L62.4358 65.9358L62.4234 65.9295H62.4201L62.411 65.9234H62.4077L62.3953 65.9173L62.3824 65.9112L62.37 65.9051H62.3667L62.3543 65.899L62.3418 65.8924H62.3386L62.3289 65.8866H62.3261H62.3132L62.3102 65.8802L62.2947 65.8744C62.2322 65.8554 62.1668 65.8369 62.1016 65.8179H62.095L62.0671 65.8118H62.0421H62.0393L62.0264 65.8059H62.0203H62.0142H62.0048H61.9987H61.9891L61.9863 65.7996H61.9739H61.9704H61.9582H61.9453H61.9422H61.9296H61.9265H61.9136H61.9075L61.9014 65.7938H61.8921H61.886H61.8766H61.8736H61.8607H61.8578H61.8424C61.4927 65.7938 61.1744 65.937 60.9436 66.1617C60.7127 66.3984 60.5723 66.717 60.5723 67.0664C60.5847 67.241 60.5847 67.2785 60.622 67.4159L60.6255 67.4283L60.6288 67.447L60.6349 67.4595C60.6949 67.6509 60.8039 67.8256 60.9412 67.9631ZM62.3296 64.2998C62.5764 64.3434 62.8071 64.4184 63.0257 64.5183L63.0318 64.5246C63.993 62.9646 64.8419 60.7612 65.5249 58.0905C63.7561 56.9798 61.8963 55.6505 59.999 54.128C58.105 55.6446 56.2455 56.9798 54.4762 58.0845C54.6417 58.7395 54.8196 59.3634 55.0068 59.9566C56.13 63.5449 57.5435 66.0035 59.0571 66.7399L59.0599 66.7085L59.0632 66.6837L59.066 66.6712L59.0693 66.6527V66.6398L59.0725 66.6216L59.0754 66.6026L59.0786 66.5902L59.0814 66.5712L59.0847 66.5588L59.088 66.5339L59.0941 66.5025L59.1002 66.4718L59.1035 66.465L59.1063 66.4467L59.1096 66.4338L59.1124 66.4153L59.1185 66.3963L59.1218 66.3839L59.1278 66.3656V66.3591L59.1339 66.3347L59.1372 66.3284L59.1433 66.3035V66.2974L59.1529 66.2723V66.2662L59.1623 66.2414V66.2344L59.1684 66.2156L59.1745 66.2032L59.1778 66.1847L59.1839 66.1657L59.1867 66.1598L59.1963 66.1348H59.1996L59.2087 66.1036L59.2181 66.079V66.0724L59.2277 66.0478L59.2338 66.0417L59.2399 66.023L59.2464 66.0105L59.2493 65.9916L59.2589 65.9791L59.2713 65.9419H59.2746L59.287 65.9168L59.2966 65.8856H59.2999L59.309 65.8605L59.3151 65.8545L59.3245 65.8359L59.3306 65.823L59.3372 65.8106L59.3432 65.7923L59.3493 65.7855L59.3587 65.7612L59.3615 65.7551L59.3772 65.73L59.3899 65.7049L59.3929 65.6991L59.4051 65.6801L59.4084 65.674L59.418 65.6557L59.4274 65.6428L59.4335 65.6304L59.4431 65.6119L59.4492 65.6053L59.4616 65.5868L59.4649 65.5807L59.4806 65.5556L59.4958 65.5308H59.4991L59.5113 65.5123L59.5179 65.4994L59.527 65.487L59.5366 65.4745L59.5427 65.4619L59.5554 65.4434L59.5614 65.4373L59.5739 65.4183L59.5771 65.4124L59.5957 65.3934L59.6114 65.3688L59.6147 65.3627L59.6304 65.344L59.6364 65.3377L59.6489 65.3252L59.6582 65.3126L59.6679 65.3002L59.6775 65.2875L59.6836 65.2751L59.699 65.2627L59.7018 65.2563L59.7208 65.2315L59.7393 65.2125L59.7426 65.2066L59.7583 65.1879L59.7677 65.182L59.7801 65.1691L59.7897 65.1567L59.7989 65.1506L59.8115 65.1316L59.8176 65.1258L59.8361 65.1066H59.8394L59.8584 65.0883C60.37 64.5764 61.072 64.2584 61.8428 64.2584H61.8611H61.8768H61.8801H61.8925L61.908 64.2642H61.9176H61.9237H61.9392H61.9516H61.9549H61.9704H61.9861H61.9889H62.0018H62.0172H62.0233H62.0329L62.0512 64.2705H62.0573H62.0639H62.0791H62.0946H62.0979H62.1136L62.1257 64.2764H62.1293H62.1417H62.1604H62.1635L62.1764 64.2832H62.1918H62.1979H62.2073L62.2197 64.2891H62.2352H62.2509L62.2664 64.2952H62.2694H62.2821H62.2978H62.3039L62.3128 64.3012H62.3296V64.2998ZM63.0567 39.2189C62.2767 38.4389 61.1941 37.9523 59.999 37.9523C58.8072 37.9523 57.7244 38.4389 56.9414 39.2189C56.1611 39.9991 55.6776 41.0789 55.6776 42.2768C55.6776 43.4691 56.1611 44.5486 56.9414 45.3352C57.7244 46.1147 58.8072 46.5956 59.999 46.5956C61.1941 46.5956 62.2767 46.1147 63.0567 45.3352C63.8369 44.5488 64.3207 43.4691 64.3207 42.2768C64.3207 41.0789 63.8369 39.9991 63.0567 39.2189ZM59.999 36.417C61.6153 36.417 63.0785 37.0788 64.1364 38.133C65.1975 39.2006 65.8561 40.6603 65.8561 42.2768C65.8561 43.8867 65.1975 45.3534 64.1425 46.4145C63.0785 47.475 61.6153 48.1301 59.999 48.1301C58.3861 48.1301 56.9224 47.475 55.8618 46.4145C54.8008 45.3534 54.1455 43.8867 54.1455 42.2768C54.1455 40.6605 54.8006 39.2006 55.8586 38.1396C56.9224 37.0788 58.3861 36.417 59.999 36.417ZM47.0871 62.0156C47.4836 61.8659 47.9266 62.066 48.0761 62.4593C48.2292 62.8523 48.0293 63.2951 47.6367 63.4512C45.9328 64.1002 44.3791 64.3313 43.0589 64.2373C41.5518 64.1313 40.3289 63.5944 39.5111 62.7462C38.7248 61.9287 38.1696 60.7366 38.0198 59.2699C37.8886 58.0219 38.0507 56.5612 38.6158 54.9891C38.756 54.5892 39.1961 54.3776 39.5955 54.521C39.9918 54.6647 40.2009 55.1016 40.0603 55.5007C39.5768 56.8552 39.4364 58.0781 39.5425 59.1143C39.6548 60.2245 40.0542 61.1046 40.6099 61.6852C41.1684 62.2591 42.0452 62.6339 43.1686 62.715C44.2729 62.7895 45.6051 62.5835 47.0871 62.0156ZM79.6753 24.3605C79.3788 24.0609 79.3788 23.5741 79.6753 23.2746C79.975 22.9753 80.4614 22.9753 80.7611 23.2746C81.7847 24.2977 82.1341 25.8518 81.8875 27.7866C81.6508 29.6273 80.8582 31.8614 79.5944 34.3205C79.4011 34.7009 78.9391 34.8443 78.5646 34.6575C78.19 34.4641 78.0405 34.0022 78.2339 33.6274C79.4198 31.3184 80.1562 29.2594 80.3714 27.5927C80.5553 26.1452 80.3432 25.0282 79.6753 24.3605ZM39.4113 22.563C39.7174 22.2759 40.2037 22.2949 40.4908 22.6003C40.7779 22.9125 40.7594 23.393 40.4505 23.6801C39.761 24.3227 39.505 25.4334 39.6391 26.888C39.7921 28.5602 40.4505 30.6506 41.5486 32.9974C41.7267 33.3778 41.5612 33.8332 41.1804 34.0144C40.7967 34.1953 40.3408 34.027 40.1662 33.6462C38.9934 31.1377 38.2818 28.8785 38.1164 27.0248C37.9385 25.084 38.3472 23.5493 39.4113 22.563ZM64.9354 84.8808H55.0626V93.5745H64.9354V84.8808ZM54.295 83.3461H65.7028C66.1275 83.3461 66.4701 83.6892 66.4701 84.1134V93.5742H76.2494V79.9071C76.2525 79.6263 76.4114 79.3516 76.6863 79.2206C83.2354 76.0629 88.7524 71.1016 92.5966 64.9859C96.3096 59.07 98.4625 52.0615 98.4625 44.5545C98.4625 33.933 94.1564 24.3162 87.1954 17.358C80.2373 10.3997 70.6202 6.09375 59.9988 6.09375C49.3807 6.09375 39.7607 10.3995 32.8024 17.358C25.8443 24.3162 21.5381 33.933 21.5381 44.5545C21.5381 52.0615 23.6882 59.07 27.4045 64.9859C31.2363 71.089 36.7404 76.0378 43.274 79.2019C43.5487 79.3141 43.7482 79.5886 43.7482 79.9071V93.5742H53.5275V84.1134C53.5277 83.6892 53.8739 83.3461 54.295 83.3461ZM39.2086 45.2909C38.9278 45.0105 38.5378 44.8357 38.1072 44.8357C37.68 44.8357 37.2897 45.0105 37.0087 45.2909C36.7312 45.5716 36.5564 45.9649 36.5564 46.3894C36.5564 46.8202 36.7312 47.2069 37.012 47.4881C37.293 47.7687 37.68 47.9433 38.1072 47.9433C38.5378 47.9433 38.925 47.7687 39.2057 47.4881C39.4863 47.2071 39.6609 46.8202 39.6609 46.3894C39.6609 45.9588 39.4861 45.5716 39.2086 45.2909ZM40.6064 48.3052C40.5222 48.4174 40.435 48.5175 40.335 48.6173C39.7671 49.1913 38.9777 49.541 38.1072 49.541C37.2398 49.541 36.4502 49.1913 35.8795 48.6173C35.3116 48.0492 34.9591 47.2631 34.9591 46.3894C34.9591 45.9841 35.0369 45.597 35.1743 45.2414C34.8061 44.8734 34.5068 44.486 34.2818 44.0993C33.9482 43.5129 33.7736 42.9014 33.7736 42.277C33.7736 39.6748 36.828 37.4095 41.7646 35.8491C42.2763 35.6873 42.813 35.531 43.3619 35.3813C43.0748 34.8884 42.81 34.4016 42.5632 33.9213C40.1793 29.3283 39.6175 25.5652 41.4555 23.7305C43.2902 21.8955 47.0533 22.451 51.6492 24.8348C52.1266 25.0845 52.6136 25.353 53.1096 25.6404C53.662 23.5873 54.3143 21.7962 55.0408 20.3545C54.6979 19.9425 54.4886 19.4121 54.4886 18.8316C54.4886 18.1826 54.7539 17.5901 55.1817 17.1656C55.6061 16.7351 56.1986 16.4728 56.8509 16.4728C57.2346 16.4728 57.5967 16.5663 57.915 16.7222C58.1613 16.5602 58.4142 16.429 58.6701 16.323C59.1068 16.1421 59.553 16.0486 59.9993 16.0486C62.5985 16.0486 64.867 19.1063 66.427 24.0422C66.5892 24.5545 66.745 25.0845 66.892 25.6402C67.3879 25.3528 67.8745 25.0845 68.3519 24.8346C72.9452 22.4508 76.7114 21.8953 78.5461 23.7302C80.3807 25.5649 79.822 29.3283 77.4379 33.9211C77.1886 34.4016 76.9235 34.8884 76.6364 35.3873C78.0372 35.7621 79.3134 36.1802 80.44 36.642L80.4616 36.6232C80.8896 36.1927 81.4821 35.9306 82.1343 35.9306C82.7861 35.9306 83.3796 36.1927 83.8066 36.6232C84.2313 37.0479 84.4964 37.6404 84.4964 38.2894C84.4964 38.5078 84.4685 38.726 84.4122 38.9259C84.9114 39.3565 85.3108 39.806 85.6073 40.2675C86.0128 40.9104 86.2282 41.5784 86.2282 42.277C86.2282 44.8734 83.1705 47.1384 78.2341 48.7048C77.7225 48.8672 77.1888 49.017 76.6368 49.1667C76.9239 49.6659 77.1921 50.153 77.4384 50.6271C79.8225 55.2202 80.3812 58.9831 78.5465 60.8177C76.7118 62.6585 72.9457 62.0972 68.3524 59.7131C67.875 59.4635 67.3884 59.1954 66.8892 58.9083C66.1558 61.6477 65.2382 63.9131 64.1962 65.5352C64.4833 65.9787 64.6518 66.5025 64.6518 67.0643C64.6518 67.8382 64.3366 68.5371 63.828 69.0424C63.3161 69.5541 62.6172 69.8723 61.8436 69.8723C61.0727 69.8723 60.3707 69.5541 59.8654 69.0483C59.6845 68.8676 59.5282 68.662 59.4002 68.4431C57.0384 68.0065 54.9853 65.0173 53.5439 60.4116C53.3936 59.9309 53.2474 59.4255 53.1098 58.9137C52.6139 59.1947 52.1268 59.4628 51.6494 59.7124C47.0536 62.0965 43.2902 62.6578 41.4557 60.817C39.6178 58.9823 40.1796 55.2192 42.5634 50.6264C42.813 50.1523 43.0783 49.6591 43.3654 49.166C42.3818 48.9042 41.4581 48.611 40.6064 48.3052ZM85.4046 86.7598C85.6917 86.7598 85.9943 86.5725 86.0908 86.3292C86.3468 85.8173 85.9568 85.2244 85.4046 85.2244H83.8692C83.5821 85.2244 83.2793 85.4114 83.1794 85.6549C82.927 86.1668 83.3139 86.7598 83.8692 86.7598H85.4046ZM91.5356 86.7598C91.826 86.7598 92.1286 86.5725 92.2251 86.3292C92.4811 85.8173 92.0911 85.2244 91.5356 85.2244H90.0037C89.7133 85.2244 89.4105 85.4114 89.3139 85.6549C89.0582 86.1668 89.4485 86.7598 90.0037 86.7598H91.5356ZM29.6575 101.475C29.9475 101.475 30.2503 101.281 30.3468 101.038C30.6025 100.526 30.2128 99.9396 29.6575 99.9396H28.1224C27.8353 99.9396 27.5325 100.127 27.4359 100.37C27.1802 100.882 27.5667 101.475 28.1224 101.475H29.6575ZM35.7916 101.475C36.0787 101.475 36.3846 101.281 36.4783 101.038C36.734 100.526 36.3471 99.9396 35.7916 99.9396H34.2567C33.9696 99.9396 33.6637 100.127 33.5702 100.37C33.314 100.882 33.701 101.475 34.2567 101.475H35.7916ZM41.9233 101.475C42.2132 101.475 42.5158 101.281 42.6129 101.038C42.8686 100.526 42.4783 99.9396 41.9233 99.9396H40.3912C40.1008 99.9396 39.7982 100.127 39.7014 100.37C39.4457 100.882 39.8355 101.475 40.3912 101.475H41.9233ZM29.6575 96.5695C29.9475 96.5695 30.2503 96.3825 30.3468 96.139C30.6025 95.6273 30.2128 95.0344 29.6575 95.0344H28.1224C27.8353 95.0344 27.5325 95.2219 27.4359 95.4649C27.1802 95.977 27.5667 96.5695 28.1224 96.5695H29.6575ZM35.7916 96.5695C36.0787 96.5695 36.3846 96.3825 36.4783 96.139C36.734 95.6273 36.3471 95.0344 35.7916 95.0344H34.2567C33.9696 95.0344 33.6637 95.2219 33.5702 95.4649C33.314 95.977 33.701 96.5695 34.2567 96.5695H35.7916ZM41.9233 96.5695C42.2132 96.5695 42.5158 96.3825 42.6129 96.139C42.8686 95.6273 42.4783 95.0344 41.9233 95.0344H40.3912C40.1008 95.0344 39.7982 95.2219 39.7014 95.4649C39.4457 95.977 39.8355 96.5695 40.3912 96.5695H41.9233ZM29.6575 91.6645C29.9475 91.6645 30.2503 91.4773 30.3468 91.2342C30.6025 90.7223 30.2128 90.1296 29.6575 90.1296H28.1224C27.8353 90.1296 27.5325 90.3169 27.4359 90.5604C27.1802 91.072 27.5667 91.6645 28.1224 91.6645H29.6575ZM35.7916 91.6645C36.0787 91.6645 36.3846 91.4773 36.4783 91.2342C36.734 90.7223 36.3471 90.1296 35.7916 90.1296H34.2567C33.9696 90.1296 33.6637 90.3169 33.5702 90.5604C33.314 91.072 33.701 91.6645 34.2567 91.6645H35.7916ZM41.9233 91.6645C42.2132 91.6645 42.5158 91.4773 42.6129 91.2342C42.8686 90.7223 42.4783 90.1296 41.9233 90.1296H40.3912C40.1008 90.1296 39.7982 90.3169 39.7014 90.5604C39.4457 91.072 39.8355 91.6645 40.3912 91.6645H41.9233ZM29.6575 86.7598C29.9475 86.7598 30.2503 86.5725 30.3468 86.3292C30.6025 85.8173 30.2128 85.2244 29.6575 85.2244H28.1224C27.8353 85.2244 27.5325 85.4114 27.4359 85.6549C27.1802 86.1668 27.5667 86.7598 28.1224 86.7598H29.6575ZM35.7916 86.7598C36.0787 86.7598 36.3846 86.5725 36.4783 86.3292C36.734 85.8173 36.3471 85.2244 35.7916 85.2244H34.2567C33.9696 85.2244 33.6637 85.4114 33.5702 85.6549C33.314 86.1668 33.701 86.7598 34.2567 86.7598H35.7916ZM41.9233 86.7598C42.2132 86.7598 42.5158 86.5725 42.6129 86.3292C42.8686 85.8173 42.4783 85.2244 41.9233 85.2244H40.3912C40.1008 85.2244 39.7982 85.4114 39.7014 85.6549C39.4457 86.1668 39.8355 86.7598 40.3912 86.7598H41.9233ZM79.27 101.475C79.5602 101.475 79.8623 101.281 79.9596 101.038C80.2153 100.526 79.825 99.9396 79.27 99.9396H77.7379C77.4478 99.9396 77.145 100.127 77.0484 100.37C76.7925 100.882 77.1822 101.475 77.7379 101.475H79.27ZM85.4046 101.475C85.6917 101.475 85.9943 101.281 86.0908 101.038C86.3468 100.526 85.9568 99.9396 85.4046 99.9396H83.8692C83.5821 99.9396 83.2793 100.127 83.1794 100.37C82.927 100.882 83.3139 101.475 83.8692 101.475H85.4046ZM91.5356 101.475C91.826 101.475 92.1286 101.281 92.2251 101.038C92.4811 100.526 92.0911 99.9396 91.5356 99.9396H90.0037C89.7133 99.9396 89.4105 100.127 89.3139 100.37C89.0582 100.882 89.4485 101.475 90.0037 101.475H91.5356ZM79.27 96.5695C79.5602 96.5695 79.8623 96.3825 79.9596 96.139C80.2153 95.6273 79.825 95.0344 79.27 95.0344H77.7379C77.4478 95.0344 77.145 95.2219 77.0484 95.4649C76.7925 95.977 77.1822 96.5695 77.7379 96.5695H79.27ZM85.4046 96.5695C85.6917 96.5695 85.9943 96.3825 86.0908 96.139C86.3468 95.6273 85.9568 95.0344 85.4046 95.0344H83.8692C83.5821 95.0344 83.2793 95.2219 83.1794 95.4649C82.927 95.977 83.3139 96.5695 83.8692 96.5695H85.4046ZM91.5356 96.5695C91.826 96.5695 92.1286 96.3825 92.2251 96.139C92.4811 95.6273 92.0911 95.0344 91.5356 95.0344H90.0037C89.7133 95.0344 89.4105 95.2219 89.3139 95.4649C89.0582 95.977 89.4485 96.5695 90.0037 96.5695H91.5356ZM79.27 91.6645C79.5602 91.6645 79.8623 91.4773 79.9596 91.2342C80.2153 90.7223 79.825 90.1296 79.27 90.1296H77.7379C77.4478 90.1296 77.145 90.3169 77.0484 90.5604C76.7925 91.072 77.1822 91.6645 77.7379 91.6645H79.27ZM85.4046 91.6645C85.6917 91.6645 85.9943 91.4773 86.0908 91.2342C86.3468 90.7223 85.9568 90.1296 85.4046 90.1296H83.8692C83.5821 90.1296 83.2793 90.3169 83.1794 90.5604C82.927 91.072 83.3139 91.6645 83.8692 91.6645H85.4046ZM91.5356 91.6645C91.826 91.6645 92.1286 91.4773 92.2251 91.2342C92.4811 90.7223 92.0911 90.1296 91.5356 90.1296H90.0037C89.7133 90.1296 89.4105 90.3169 89.3139 90.5604C89.0582 91.072 89.4485 91.6645 90.0037 91.6645H91.5356ZM77.7379 85.2244C77.4478 85.2244 77.145 85.4114 77.0484 85.6549C76.7925 86.1668 77.1822 86.7598 77.7379 86.7598H79.27C79.5602 86.7598 79.8623 86.5725 79.9596 86.3292C80.2153 85.8173 79.825 85.2244 79.27 85.2244H77.7379ZM38.107 43.2377C38.9744 43.2377 39.764 43.5938 40.3347 44.1614C40.9026 44.7356 41.2584 45.522 41.2584 46.3891C41.2584 46.564 41.2457 46.7327 41.2176 46.901C42.1258 47.2256 43.1182 47.5254 44.1883 47.7996C45.296 46.0336 46.6284 44.1677 48.1509 42.2768C46.6284 40.38 45.2993 38.5205 44.1883 36.7542C43.5047 36.9286 42.8496 37.1161 42.2257 37.3095C37.9509 38.6634 35.3081 40.4234 35.3081 42.2766C35.3081 42.6323 35.4107 42.9879 35.6104 43.3376C35.7356 43.5497 35.8914 43.7681 36.0818 43.9802C36.6344 43.5187 37.3396 43.2377 38.107 43.2377Z" fill="black"/>
</g>
</g>
</g>
</svg>
