<svg width="141" height="17" viewBox="0 0 141 17" fill="none" xmlns="http://www.w3.org/2000/svg">
<path d="M2.25034 14.4193C1.32991 14.1719 0.578608 13.8532 0 13.4633L1.38154 10.8409C2.00643 11.2432 2.67406 11.5459 3.38263 11.7524C4.0912 11.9589 4.79978 12.0622 5.50835 12.0622C6.21692 12.0622 6.70295 11.9643 7.07504 11.7702C7.44713 11.5762 7.63228 11.3073 7.63228 10.9637C7.63228 10.6682 7.46315 10.4385 7.12845 10.2729C6.79197 10.1074 6.26855 9.93112 5.55998 9.74241C4.75705 9.53055 4.08942 9.31513 3.55888 9.09615C3.02835 8.87717 2.56902 8.54424 2.18625 8.0956C1.8017 7.64696 1.6112 7.05589 1.6112 6.32417C1.6112 5.43935 1.85333 4.66312 2.33758 3.9955C2.82183 3.32787 3.5126 2.81158 4.40988 2.44483C5.30717 2.07986 6.35935 1.89648 7.56285 1.89648C8.44768 1.89648 9.27553 1.98728 10.0429 2.17066C10.8102 2.35403 11.4725 2.61574 12.0261 2.95934L10.7514 5.56219C10.2672 5.25597 9.73308 5.02275 9.14913 4.86252C8.56518 4.70229 7.96521 4.62395 7.35099 4.62395C6.65488 4.62395 6.10832 4.73611 5.71309 4.96044C5.31785 5.18476 5.12024 5.47495 5.12024 5.82924C5.12024 6.13724 5.29115 6.37224 5.63297 6.53781C5.9748 6.70338 6.50711 6.87963 7.22815 7.06835C8.03108 7.26953 8.69514 7.47605 9.22034 7.6879C9.74554 7.89976 10.1977 8.22557 10.5752 8.66175C10.9526 9.09971 11.1431 9.6712 11.1431 10.3798C11.1431 11.2539 10.8974 12.0248 10.4078 12.6906C9.91823 13.3583 9.22034 13.8746 8.31771 14.2413C7.41508 14.6081 6.36647 14.7896 5.17365 14.7896C4.14639 14.7896 3.17255 14.665 2.25034 14.4176V14.4193ZM15.4373 14.1007C14.5097 13.6396 13.7958 12.9969 13.2937 12.1708C12.7917 11.3447 12.5407 10.3994 12.5407 9.33649C12.5407 7.91935 12.8682 6.64463 13.5234 5.51056C14.1786 4.37649 15.0937 3.49166 16.2687 2.8543C17.4437 2.21694 18.7807 1.89826 20.2815 1.89826C21.5331 1.89826 22.6227 2.12793 23.5502 2.58903C24.4778 3.05014 25.1917 3.69284 25.6938 4.51891C26.1958 5.34499 26.4468 6.29034 26.4468 7.3532C26.4468 8.77035 26.1193 10.0451 25.4641 11.1791C24.8089 12.3132 23.8938 13.198 22.7188 13.8354C21.5438 14.4728 20.2068 14.7914 18.706 14.7914C17.4544 14.7914 16.3648 14.5618 15.4373 14.1007ZM21.0613 11.302C21.6524 10.9121 22.1064 10.3904 22.4251 9.73351C22.7437 9.07656 22.904 8.35553 22.904 7.56328C22.904 6.72475 22.6476 6.05534 22.1331 5.55329C21.6186 5.05123 20.9011 4.80021 19.9807 4.80021C19.2009 4.80021 18.5172 4.99426 17.9262 5.38416C17.3351 5.77405 16.8811 6.29569 16.5624 6.95263C16.2438 7.60779 16.0835 8.33061 16.0835 9.12285C16.0835 9.96139 16.3399 10.6308 16.8544 11.1328C17.3689 11.6349 18.0864 11.8859 19.0068 11.8859C19.7866 11.8859 20.4703 11.6919 21.0613 11.302ZM29.4752 2.14395H32.9824L31.0686 11.7613H36.9846L36.4185 14.5422H26.9952L29.4752 2.14395ZM40.9352 14.2502C40.1554 13.8906 39.559 13.3743 39.1459 12.6995C38.7329 12.0266 38.5264 11.2361 38.5264 10.3264C38.5264 9.94893 38.5727 9.51096 38.6688 9.01603L40.0504 2.14395H43.5576L42.1939 8.96262C42.1227 9.31691 42.0871 9.64093 42.0871 9.93647C42.0871 11.2361 42.7725 11.8841 44.1416 11.8841C44.8857 11.8841 45.4732 11.6563 45.9041 11.2023C46.3349 10.7483 46.6572 10.0006 46.869 8.96084L48.2328 2.14217H51.6866L50.2873 9.17448C49.5306 12.9185 47.3408 14.7896 43.7161 14.7896C42.6407 14.7896 41.715 14.6098 40.9352 14.2502ZM55.9558 4.92483H52.1477L52.7139 2.14395H63.8196L63.2534 4.92483H59.4631L57.5332 14.5422H54.026L55.9558 4.92483ZM65.1299 2.14395H68.6372L66.1572 14.5422H62.6499L65.1299 2.14395ZM72.0821 14.1007C71.1545 13.6396 70.4406 12.9969 69.9386 12.1708C69.4365 11.3447 69.1855 10.3994 69.1855 9.33649C69.1855 7.91935 69.5131 6.64463 70.1682 5.51056C70.8234 4.37649 71.7385 3.49166 72.9135 2.8543C74.0885 2.21694 75.4256 1.89826 76.9264 1.89826C78.178 1.89826 79.2675 2.12793 80.1951 2.58903C81.1226 3.05014 81.8365 3.69284 82.3386 4.51891C82.8406 5.34499 83.0917 6.29034 83.0917 7.3532C83.0917 8.77035 82.7641 10.0451 82.1089 11.1791C81.4538 12.3132 80.5387 13.198 79.3637 13.8354C78.1886 14.4728 76.8516 14.7914 75.3508 14.7914C74.0992 14.7914 73.0096 14.5618 72.0821 14.1007ZM77.7062 11.302C78.2972 10.9121 78.7512 10.3904 79.0699 9.73351C79.3886 9.07656 79.5488 8.35553 79.5488 7.56328C79.5488 6.72475 79.2924 6.05534 78.7779 5.55329C78.2634 5.05123 77.5459 4.80021 76.6255 4.80021C75.8457 4.80021 75.1621 4.99426 74.571 5.38416C73.9799 5.77405 73.5259 6.29569 73.2073 6.95263C72.8886 7.60779 72.7284 8.33061 72.7284 9.12285C72.7284 9.96139 72.9847 10.6308 73.4992 11.1328C74.0138 11.6349 74.7312 11.8859 75.6517 11.8859C76.4314 11.8859 77.1151 11.6919 77.7062 11.302ZM97.9005 2.14395L95.4205 14.5422H92.5328L88.4416 7.73953L87.0778 14.5422H83.6418L86.1218 2.14395H89.0095L93.1185 8.9288L94.4644 2.14395H97.9005ZM99.6185 14.4193C98.6981 14.1719 97.9468 13.8532 97.3682 13.4633L98.7497 10.8409C99.3764 11.2432 100.042 11.5459 100.751 11.7524C101.459 11.9589 102.168 12.0622 102.876 12.0622C103.585 12.0622 104.071 11.9643 104.443 11.7702C104.815 11.5762 105 11.3073 105 10.9637C105 10.6682 104.831 10.4385 104.497 10.2729C104.16 10.1074 103.637 9.93112 102.928 9.74241C102.125 9.53055 101.458 9.31513 100.927 9.09615C100.395 8.87717 99.9372 8.54424 99.5544 8.0956C99.1699 7.64696 98.9794 7.05589 98.9794 6.32417C98.9794 5.43935 99.2215 4.66312 99.7057 3.9955C100.19 3.32787 100.881 2.81158 101.778 2.44483C102.675 2.07986 103.726 1.89648 104.931 1.89648C105.816 1.89648 106.644 1.98728 107.411 2.17066C108.178 2.35403 108.839 2.61574 109.394 2.95934L108.12 5.56219C107.635 5.25597 107.101 5.02275 106.517 4.86252C105.933 4.70229 105.333 4.62395 104.719 4.62395C104.023 4.62395 103.476 4.73611 103.081 4.96044C102.686 5.18476 102.488 5.47495 102.488 5.82924C102.488 6.13724 102.659 6.37224 103.003 6.53781C103.345 6.70338 103.877 6.87963 104.596 7.06835C105.399 7.26953 106.063 7.47605 106.588 7.6879C107.114 7.89976 107.566 8.22557 107.943 8.66175C108.321 9.09971 108.509 9.6712 108.509 10.3798C108.509 11.2539 108.264 12.0248 107.774 12.6906C107.285 13.3583 106.587 13.8746 105.684 14.2413C104.781 14.6081 103.733 14.7896 102.54 14.7896C101.513 14.7896 100.539 14.665 99.6167 14.4176L99.6185 14.4193Z" fill="#1D174F"/>
<path d="M121.594 11.8855H116.992L119.594 9.86482C120.67 9.05121 121.421 8.30703 121.854 7.63407C122.285 6.9611 122.5 6.23472 122.5 5.45494C122.5 4.80512 122.304 4.21761 121.914 3.69241C121.524 3.16721 120.985 2.75595 120.294 2.4622C119.603 2.16666 118.815 2.0189 117.93 2.0189C116.808 2.0189 115.79 2.24678 114.875 2.70076C113.958 3.15475 113.253 3.7654 112.758 4.53451L115.096 6.07449C115.402 5.67392 115.754 5.36592 116.15 5.15406C116.545 4.94042 116.961 4.83538 117.398 4.83538C117.882 4.83538 118.254 4.93864 118.514 5.14516C118.774 5.35168 118.904 5.63119 118.904 5.98548C118.904 6.33976 118.786 6.68515 118.549 7.02163C118.313 7.35989 117.882 7.76937 117.257 8.25362L111.836 12.4694L111.394 14.6664H120.081L121.594 11.8855ZM134.831 5.12736L133.707 7.2869L137.076 8.5723L132.199 10.1835L130.602 13.2564L139.839 10.0785L140.387 7.35099L134.831 5.12736ZM134.33 0L125.651 16.6853H122.144L129.755 2.70967H128.238L129.306 0L134.33 0ZM120.081 14.6664L121.594 11.8855Z" fill="url(#paint0_linear_81_1811)"/>
<defs>
<linearGradient id="paint0_linear_81_1811" x1="116.335" y1="0.80649" x2="132.723" y2="17.1944" gradientUnits="userSpaceOnUse">
<stop stop-color="#1CB899"/>
<stop offset="0.5" stop-color="#134AA0"/>
<stop offset="0.56" stop-color="#26459C"/>
<stop offset="0.69" stop-color="#593992"/>
<stop offset="0.86" stop-color="#AA2782"/>
<stop offset="1" stop-color="#ED1876"/>
</linearGradient>
</defs>
</svg>
