<svg width="120" height="120" viewBox="0 0 120 120" fill="none" xmlns="http://www.w3.org/2000/svg">
<path d="M60.0002 13.7L70.7002 19.9H83.1002L89.3002 30.7L100.1 36.9V49.2999L106.3 60L100.1 70.6999V83.1L89.3002 89.3L83.1002 100.1H70.7002L60.0002 106.3L49.3002 100.1H36.9002L30.7002 89.3L19.9002 83.1V70.6999L13.7002 60L19.9002 49.2999V36.9L30.7002 30.7L36.9002 19.9H49.3002L60.0002 13.7Z" fill="black"/>
<path d="M60.0006 93.8999C41.3006 93.8999 26.1006 78.6999 26.1006 59.9999C26.1006 41.2999 41.3006 26.0999 60.0006 26.0999C78.7006 26.0999 93.9006 41.2999 93.9006 59.9999C93.9006 78.6999 78.7006 93.8999 60.0006 93.8999ZM60.0006 28.9999C42.9006 28.9999 29.0006 42.8999 29.0006 59.9999C29.0006 77.0999 42.9006 90.9999 60.0006 90.9999C77.1006 90.9999 91.0006 77.0999 91.0006 59.9999C91.0006 42.8999 77.1006 28.9999 60.0006 28.9999Z" fill="white"/>
<path d="M56.2998 72.6001L41.5998 60.9001C40.3998 59.9001 40.1998 58.2001 41.1998 57.0001C42.1998 55.8001 43.8998 55.6001 45.0998 56.6001L57.6999 66.7001L74.4998 47.9001C75.4998 46.8001 77.2999 46.7001 78.3998 47.7001C79.4998 48.7001 79.5998 50.5001 78.5998 51.6001L60.0998 72.3001C59.0998 73.4001 57.3998 73.5001 56.2998 72.6001Z" fill="white"/>
</svg>
