<svg width="141" height="17" viewBox="0 0 141 17" fill="none" xmlns="http://www.w3.org/2000/svg">
<g id="SOLUTIONS21">
<g id="SOLUTIONS21_x5F_LOGO">
<path id="Vector" d="M2.25034 14.4189C1.32991 14.1714 0.578608 13.8527 0 13.4628L1.38154 10.8404C2.00643 11.2427 2.67406 11.5454 3.38263 11.7519C4.0912 11.9584 4.79978 12.0617 5.50835 12.0617C6.21692 12.0617 6.70295 11.9638 7.07504 11.7697C7.44713 11.5757 7.63228 11.3068 7.63228 10.9632C7.63228 10.6677 7.46315 10.438 7.12845 10.2725C6.79197 10.1069 6.26855 9.93064 5.55998 9.74192C4.75705 9.53006 4.08942 9.31464 3.55888 9.09566C3.02835 8.87668 2.56902 8.54376 2.18625 8.09511C1.8017 7.64647 1.6112 7.0554 1.6112 6.32368C1.6112 5.43886 1.85333 4.66263 2.33758 3.99501C2.82183 3.32738 3.5126 2.81109 4.40988 2.44434C5.30717 2.07937 6.35935 1.896 7.56285 1.896C8.44768 1.896 9.27553 1.98679 10.0429 2.17017C10.8102 2.35354 11.4725 2.61525 12.0261 2.95885L10.7514 5.5617C10.2672 5.25548 9.73308 5.02226 9.14913 4.86203C8.56518 4.7018 7.96521 4.62346 7.35099 4.62346C6.65488 4.62346 6.10832 4.73563 5.71309 4.95995C5.31785 5.18427 5.12024 5.47446 5.12024 5.82875C5.12024 6.13675 5.29115 6.37175 5.63297 6.53732C5.9748 6.70289 6.50711 6.87915 7.22815 7.06786C8.03108 7.26904 8.69514 7.47556 9.22034 7.68742C9.74554 7.89928 10.1977 8.22508 10.5752 8.66126C10.9526 9.09922 11.1431 9.67071 11.1431 10.3793C11.1431 11.2534 10.8974 12.0243 10.4078 12.6901C9.91823 13.3578 9.22034 13.8741 8.31771 14.2408C7.41508 14.6076 6.36647 14.7892 5.17365 14.7892C4.14639 14.7892 3.17255 14.6645 2.25034 14.4171V14.4189ZM15.4373 14.1002C14.5097 13.6391 13.7958 12.9964 13.2937 12.1703C12.7917 11.3442 12.5407 10.3989 12.5407 9.336C12.5407 7.91886 12.8682 6.64414 13.5234 5.51007C14.1786 4.376 15.0937 3.49117 16.2687 2.85382C17.4437 2.21646 18.7807 1.89778 20.2815 1.89778C21.5331 1.89778 22.6227 2.12744 23.5502 2.58855C24.4778 3.04965 25.1917 3.69235 25.6938 4.51843C26.1958 5.3445 26.4468 6.28986 26.4468 7.35271C26.4468 8.76986 26.1193 10.0446 25.4641 11.1786C24.8089 12.3127 23.8938 13.1975 22.7188 13.8349C21.5438 14.4723 20.2068 14.7909 18.706 14.7909C17.4544 14.7909 16.3648 14.5613 15.4373 14.1002ZM21.0613 11.3015C21.6524 10.9116 22.1064 10.39 22.4251 9.73302C22.7437 9.07608 22.904 8.35504 22.904 7.56279C22.904 6.72426 22.6476 6.05485 22.1331 5.5528C21.6186 5.05074 20.9011 4.79972 19.9807 4.79972C19.2009 4.79972 18.5172 4.99377 17.9262 5.38367C17.3351 5.77356 16.8811 6.2952 16.5624 6.95214C16.2438 7.6073 16.0835 8.33012 16.0835 9.12236C16.0835 9.9609 16.3399 10.6303 16.8544 11.1324C17.3689 11.6344 18.0864 11.8854 19.0068 11.8854C19.7866 11.8854 20.4703 11.6914 21.0613 11.3015ZM29.4752 2.14346H32.9824L31.0686 11.7608H36.9846L36.4185 14.5417H26.9952L29.4752 2.14346ZM40.9352 14.2497C40.1554 13.8901 39.559 13.3738 39.1459 12.6991C38.7329 12.0261 38.5264 11.2356 38.5264 10.3259C38.5264 9.94844 38.5727 9.51048 38.6688 9.01554L40.0504 2.14346H43.5576L42.1939 8.96213C42.1227 9.31642 42.0871 9.64044 42.0871 9.93598C42.0871 11.2356 42.7725 11.8837 44.1416 11.8837C44.8857 11.8837 45.4732 11.6558 45.9041 11.2018C46.3349 10.7478 46.6572 10.0001 46.869 8.96035L48.2328 2.14168H51.6866L50.2873 9.17399C49.5306 12.918 47.3408 14.7892 43.7161 14.7892C42.6407 14.7892 41.715 14.6093 40.9352 14.2497ZM55.9558 4.92434H52.1477L52.7139 2.14346H63.8196L63.2534 4.92434H59.4631L57.5332 14.5417H54.026L55.9558 4.92434ZM65.1299 2.14346H68.6372L66.1572 14.5417H62.6499L65.1299 2.14346ZM72.0821 14.1002C71.1545 13.6391 70.4406 12.9964 69.9386 12.1703C69.4365 11.3442 69.1855 10.3989 69.1855 9.336C69.1855 7.91886 69.5131 6.64414 70.1682 5.51007C70.8234 4.376 71.7385 3.49117 72.9135 2.85382C74.0885 2.21646 75.4256 1.89778 76.9264 1.89778C78.178 1.89778 79.2675 2.12744 80.1951 2.58855C81.1226 3.04965 81.8365 3.69235 82.3386 4.51843C82.8406 5.3445 83.0917 6.28986 83.0917 7.35271C83.0917 8.76986 82.7641 10.0446 82.1089 11.1786C81.4538 12.3127 80.5387 13.1975 79.3637 13.8349C78.1886 14.4723 76.8516 14.7909 75.3508 14.7909C74.0992 14.7909 73.0097 14.5613 72.0821 14.1002ZM77.7062 11.3015C78.2972 10.9116 78.7512 10.39 79.0699 9.73302C79.3886 9.07608 79.5488 8.35504 79.5488 7.56279C79.5488 6.72426 79.2924 6.05485 78.7779 5.5528C78.2634 5.05074 77.5459 4.79972 76.6255 4.79972C75.8457 4.79972 75.1621 4.99377 74.571 5.38367C73.9799 5.77356 73.5259 6.2952 73.2073 6.95214C72.8886 7.6073 72.7284 8.33012 72.7284 9.12236C72.7284 9.9609 72.9847 10.6303 73.4992 11.1324C74.0138 11.6344 74.7312 11.8854 75.6517 11.8854C76.4314 11.8854 77.1151 11.6914 77.7062 11.3015ZM97.9005 2.14346L95.4205 14.5417H92.5328L88.4416 7.73905L87.0778 14.5417H83.6418L86.1218 2.14346H89.0095L93.1185 8.92831L94.4644 2.14346H97.9005ZM99.6185 14.4189C98.6981 14.1714 97.9468 13.8527 97.3681 13.4628L98.7497 10.8404C99.3764 11.2427 100.042 11.5454 100.751 11.7519C101.459 11.9584 102.168 12.0617 102.876 12.0617C103.585 12.0617 104.071 11.9638 104.443 11.7697C104.815 11.5757 105 11.3068 105 10.9632C105 10.6677 104.831 10.438 104.497 10.2725C104.16 10.1069 103.637 9.93064 102.928 9.74192C102.125 9.53006 101.458 9.31464 100.927 9.09566C100.395 8.87668 99.9372 8.54376 99.5544 8.09511C99.1699 7.64647 98.9794 7.0554 98.9794 6.32368C98.9794 5.43886 99.2215 4.66263 99.7057 3.99501C100.19 3.32738 100.881 2.81109 101.778 2.44434C102.675 2.07937 103.726 1.896 104.931 1.896C105.816 1.896 106.644 1.98679 107.411 2.17017C108.178 2.35354 108.839 2.61525 109.394 2.95885L108.12 5.5617C107.635 5.25548 107.101 5.02226 106.517 4.86203C105.933 4.7018 105.333 4.62346 104.719 4.62346C104.023 4.62346 103.476 4.73563 103.081 4.95995C102.686 5.18427 102.488 5.47446 102.488 5.82875C102.488 6.13675 102.659 6.37175 103.003 6.53732C103.345 6.70289 103.877 6.87915 104.596 7.06786C105.399 7.26904 106.063 7.47556 106.589 7.68742C107.114 7.89928 107.566 8.22508 107.943 8.66126C108.321 9.09922 108.509 9.67071 108.509 10.3793C108.509 11.2534 108.264 12.0243 107.774 12.6901C107.285 13.3578 106.587 13.8741 105.684 14.2408C104.781 14.6076 103.733 14.7892 102.54 14.7892C101.513 14.7892 100.539 14.6645 99.6167 14.4171L99.6185 14.4189Z" fill="white"/>
<path id="Vector_2" d="M121.594 11.8855H116.992L119.595 9.86482C120.67 9.05121 121.421 8.30703 121.854 7.63407C122.285 6.9611 122.5 6.23472 122.5 5.45494C122.5 4.80512 122.304 4.21761 121.915 3.69241C121.525 3.16721 120.985 2.75595 120.294 2.4622C119.604 2.16666 118.815 2.0189 117.93 2.0189C116.809 2.0189 115.79 2.24678 114.875 2.70076C113.958 3.15475 113.253 3.7654 112.758 4.53451L115.096 6.07449C115.402 5.67392 115.755 5.36592 116.15 5.15406C116.545 4.94042 116.962 4.83538 117.398 4.83538C117.882 4.83538 118.254 4.93864 118.514 5.14516C118.774 5.35168 118.904 5.63119 118.904 5.98548C118.904 6.33976 118.786 6.68515 118.55 7.02163C118.313 7.35989 117.882 7.76937 117.257 8.25362L111.836 12.4694L111.395 14.6664H120.081L121.594 11.8855ZM134.831 5.12736L133.707 7.2869L137.076 8.5723L132.199 10.1835L130.603 13.2564L139.839 10.0785L140.387 7.35099L134.831 5.12736ZM134.331 0L125.651 16.6853H122.144L129.755 2.70967H128.238L129.306 0L134.331 0ZM120.081 14.6664L121.594 11.8855L120.081 14.6664Z" fill="url(#paint0_linear_456_689)"/>
</g>
</g>
<defs>
<linearGradient id="paint0_linear_456_689" x1="116.335" y1="0.80649" x2="132.723" y2="17.1944" gradientUnits="userSpaceOnUse">
<stop stop-color="#1CB899"/>
<stop offset="0.5" stop-color="#134AA0"/>
<stop offset="0.56" stop-color="#26459C"/>
<stop offset="0.69" stop-color="#593992"/>
<stop offset="0.86" stop-color="#AA2782"/>
<stop offset="1" stop-color="#ED1876"/>
</linearGradient>
</defs>
</svg>
